<svg width="56" height="19" viewBox="0 0 56 19" fill="none" xmlns="http://www.w3.org/2000/svg">
<path d="M10.378 11.9764C9.226 12.4404 8.354 12.8404 7.762 13.1764C7.17 13.5124 6.706 13.8884 6.37 14.3044H15.85V18.0004H0.921997V16.4884C1.002 15.1444 1.378 14.0244 2.05 13.1284C2.754 12.2004 3.554 11.4804 4.45 10.9684C5.394 10.4244 6.554 9.84838 7.93 9.24038C8.81 8.85638 9.498 8.53638 9.994 8.28038C11.13 7.70438 11.698 7.04038 11.698 6.28838C11.698 5.88838 11.442 5.57638 10.93 5.35238C10.434 5.11237 9.754 4.99237 8.89 4.99237C7.946 4.99237 7.21 5.16837 6.682 5.52037C6.154 5.85638 5.89 6.33638 5.89 6.96038H1.162C1.162 5.07238 1.85 3.60838 3.226 2.56838C4.618 1.51238 6.554 0.984375 9.034 0.984375C11.322 0.984375 13.114 1.44038 14.41 2.35238C15.722 3.24838 16.378 4.48838 16.378 6.07238C16.378 7.12838 16.098 8.03238 15.538 8.78438C15.026 9.48838 14.346 10.0804 13.498 10.5604C12.698 10.9924 11.658 11.4644 10.378 11.9764Z" fill="white"/>
<path d="M35.6234 13.3924C35.6234 14.9604 35.1274 16.1204 34.1354 16.8724C33.1594 17.6244 31.6554 18.0004 29.6234 18.0004H18.9914V1.20038H29.6234C33.5594 1.20038 35.5274 2.66437 35.5274 5.59238C35.5274 7.46438 34.6394 8.72837 32.8634 9.38437V9.48038C34.7034 10.1684 35.6234 11.4724 35.6234 13.3924ZM29.1434 4.94438H23.6954V7.82438H28.9274C29.5034 7.82438 29.9594 7.69638 30.2954 7.44038C30.6314 7.18438 30.7994 6.84038 30.7994 6.40838C30.7994 5.43238 30.2474 4.94438 29.1434 4.94438ZM30.9194 12.8164C30.9194 12.2724 30.7354 11.8484 30.3674 11.5444C30.0154 11.2404 29.5354 11.0884 28.9274 11.0884H23.6714V14.2804H29.1434C30.3274 14.2804 30.9194 13.7924 30.9194 12.8164Z" fill="white"/>
<path d="M55.849 14.4484V18.1444C55.305 18.1764 54.753 18.1924 54.193 18.1924C52.673 18.1924 51.505 17.8324 50.689 17.1124C49.873 16.3764 49.361 15.2724 49.153 13.8004C48.961 12.9204 48.761 12.4084 48.553 12.2644C48.361 12.1044 47.737 12.0084 46.681 11.9764H42.961V18.0004H38.257V1.20038H48.913C51.105 1.20038 52.785 1.65638 53.953 2.56838C55.121 3.48038 55.705 4.84038 55.705 6.64838C55.705 8.80838 54.673 10.2404 52.609 10.9444V11.0644C53.217 11.4804 53.577 12.0484 53.689 12.7684C53.849 13.8884 54.569 14.4484 55.849 14.4484ZM42.961 4.89638V8.32838H48.913C49.569 8.32838 50.081 8.18438 50.449 7.89638C50.817 7.59238 51.001 7.16838 51.001 6.62437C51.001 6.08038 50.817 5.65638 50.449 5.35238C50.081 5.04838 49.569 4.89638 48.913 4.89638H42.961Z" fill="white"/>
</svg>
