<svg width="2108" height="1308" viewBox="0 0 2108 1308" fill="none" xmlns="http://www.w3.org/2000/svg">
<g opacity="0.5" clip-path="url(#clip0_232_571)">
<path d="M1245.84 616.01L1235.75 618.67L1229.44 641.9L1239.51 639.24L1245.84 616.01Z" fill="#66AF55"/>
<path d="M849.24 654.7L855.83 664.77L843.32 689.53L836.75 679.48L849.24 654.7Z" fill="#232F60"/>
<path d="M748.828 1319.22L759.218 1320.17L773.098 1300.5L762.718 1299.56L748.828 1319.22Z" fill="#66AF55"/>
<path d="M921.659 1244.08L905.039 1255.71L905.059 1255.92L905.809 1264.47L905.829 1264.68L924.209 1273.25L923.439 1264.51L912.829 1259.55L922.419 1252.83L921.659 1244.08Z" fill="#E4032C"/>
<path d="M1224.36 1279.01L1224.68 1268.57L1245.89 1257.2L1245.57 1267.61L1224.36 1279.01Z" fill="#232F60"/>
<path d="M1341.75 724.65L1340.33 704.44L1340.15 704.35L1332.44 700.59L1332.25 700.5L1315.46 711.83L1323.34 715.67L1333.04 709.14L1333.86 720.8L1341.75 724.65Z" fill="#E4032C"/>
<path d="M787.07 910.61L780.97 902.14L757.02 904.57L763.12 913.02L787.07 910.61Z" fill="#66AF55"/>
<path d="M1245.55 788.51L1247.94 778.35L1230.4 761.87L1228.02 772.01L1245.55 788.51Z" fill="#66AF55"/>
<path d="M1268.52 552.99L1276.43 570.74L1250.09 606.99L1242.2 589.27L1268.52 552.99Z" fill="#026D7D"/>
<path d="M620.383 792.06L630.343 788.59L648.773 804.49L638.823 807.96L620.383 792.06Z" fill="#232F60"/>
<path d="M1180.89 1190.83L1191.99 1188.43L1209.58 1207.83L1198.5 1210.22L1180.89 1190.83Z" fill="#232F60"/>
<path d="M786.471 887.26L803.631 875.68L803.621 875.47L803.011 866.73L802.991 866.51L784.391 857.44L785.011 866.38L795.751 871.63L785.851 878.32L786.471 887.26Z" fill="#E4032C"/>
<path d="M791.499 632.25L778.429 628.51L770.859 598.1L783.899 601.84L791.499 632.25Z" fill="#026D7D"/>
<path d="M1417.38 976.35L1411.48 987.09L1383.22 987.69L1389.12 976.97L1417.38 976.35Z" fill="#232F60"/>
<path d="M1483.38 900.56L1476.62 921.38V921.39L1476.77 921.55L1482.97 928.44L1483.12 928.61L1504.54 924.06L1498.2 917.01L1485.83 919.63L1489.73 907.61L1483.38 900.56Z" fill="#E4032C"/>
<path d="M1027.03 660.33L1031.9 673.01L1012.18 697.36L1007.32 684.7L1027.03 660.33Z" fill="#026D7D"/>
<path d="M1159.6 709.95L1169.91 712.68L1176.36 736.42L1166.07 733.7L1159.6 709.95Z" fill="#232F60"/>
<path d="M914.77 723.57L924.24 727.95L926.43 751.91L916.97 747.54L914.77 723.57Z" fill="#232F60"/>
<path d="M1078.33 1217.23L1085.18 1239.65H1085.19L1085.42 1239.7L1095.09 1241.94L1095.32 1241.99H1095.33L1111.31 1224.85L1101.42 1222.57L1092.19 1232.46L1088.22 1219.52L1078.33 1217.23Z" fill="#E4032C"/>
<path d="M1279.75 815.71L1269.06 817.83L1252.5 798.92L1263.17 796.81L1279.75 815.71Z" fill="#232F60"/>
<path d="M1173.09 646.73L1169.15 656.39L1183.9 675.41L1187.84 665.77L1173.09 646.73Z" fill="#66AF55"/>
<path d="M863.58 1134.11L842.93 1146.03V1146.28V1156.37V1156.62L863.58 1168.54V1158.22L851.66 1151.33L863.58 1144.43V1134.11Z" fill="#E4032C"/>
<path d="M739.993 1278.59L723.473 1275.14L711.312 1238.17L727.803 1241.62L739.993 1278.59Z" fill="#232F60"/>
<path d="M1379.53 712.62L1374.13 697.94L1397.22 670.21L1402.62 684.87L1379.53 712.62Z" fill="#232F60"/>
<path d="M1319.04 743.48L1315.06 759.69L1278.1 770.43L1282.08 754.25L1319.04 743.48Z" fill="#232F60"/>
<path d="M1506.54 981.53L1487.93 989.81L1449.93 962.2L1468.51 953.93L1506.54 981.53Z" fill="#026D7D"/>
<path d="M722.999 923.92L725.769 939.32L698.219 962.62L695.449 947.24L722.999 923.92Z" fill="#232F60"/>
<path d="M688.34 1104.25L677.92 1092.58L642.59 1099.96L653.01 1111.61L688.34 1104.25Z" fill="#66AF55"/>
<path d="M820.263 1195.87L808.853 1185.15L774.312 1195.58L785.703 1206.28L820.263 1195.87Z" fill="#66AF55"/>
<path d="M1026.91 601.43L1002.34 619.28L1002.37 619.59L1003.72 632.38L1003.75 632.69L1031.49 645.05L1030.12 631.97L1014.1 624.82L1028.28 614.51L1026.91 601.43Z" fill="#E4032C"/>
<path d="M650.692 943.08L634.992 927.92L647.172 879.09L662.842 894.22L650.692 943.08Z" fill="#026D7D"/>
<path d="M1372.87 967.87L1356.8 938.87H1356.46L1342.42 938.62H1342.08L1325 967.03L1339.36 967.28L1349.23 950.88L1358.52 967.62L1372.87 967.87Z" fill="#E4032C"/>
<path d="M1468.45 807.04L1439.73 816.93L1439.67 817.24L1437.22 829.86L1437.16 830.17L1460.08 850.1L1462.59 837.19L1449.36 825.67L1465.94 819.95L1468.45 807.04Z" fill="#E4032C"/>
<path d="M870.117 1221.26L908.067 1215.93V1215.92L908.217 1215.56L914.297 1200.51L914.447 1200.15V1200.14L890.847 1169.94L884.627 1185.33L898.247 1202.78L876.327 1205.87L870.117 1221.26Z" fill="#E4032C"/>
<path d="M1263.31 1121.69L1273.15 1108.04L1311.75 1111.96L1301.92 1125.58L1263.31 1121.69Z" fill="#232F60"/>
<path d="M811.22 822.88L787.59 823.3L759.52 776.58L783.12 776.17L811.22 822.88Z" fill="#026D7D"/>
<path d="M1319.06 1019.92L1337.99 1064.52L1338.49 1064.59L1358.85 1067.09L1359.35 1067.15L1388.51 1028.45L1367.69 1025.89L1350.83 1048.23L1339.88 1022.48L1319.06 1019.92Z" fill="#E4032C"/>
<path d="M722 995.07L740.8 971L810.54 980.81L791.77 1004.83L722 995.07Z" fill="#026D7D"/>
<path d="M730.337 762.86L717.687 739.84L657.117 738.56L669.747 761.55L730.337 762.86Z" fill="#66AF55"/>
<path d="M1344.25 820.02L1303.99 843.26V843.27V843.74V863.43V863.91L1344.25 887.15V867.02L1321.01 853.59L1344.25 840.15V820.02Z" fill="#E4032C"/>
<path d="M1033.69 1258.3L1022.06 1280.36L964.609 1282.57L976.209 1260.55L1033.69 1258.3Z" fill="#232F60"/>
<path d="M789.292 999.41L766.502 991.91L725.242 1028.79L748.002 1036.28L789.292 999.41Z" fill="#66AF55"/>
<path d="M890.2 576.38L843.02 574.73V574.74L842.76 575.15L832.17 592.1L831.91 592.51L854.07 634.19L864.9 616.86L852.12 592.78L879.37 593.71L890.2 576.38Z" fill="#E4032C"/>
<path d="M1111.12 529.17L1110.25 556.99L1053.68 587.33L1054.55 559.55L1111.12 529.17Z" fill="#232F60"/>
<path d="M1307.82 678.37L1327.09 664.98L1322.57 611.07L1303.33 624.44L1307.82 678.37Z" fill="#66AF55"/>
<path d="M871.43 788.72L842.15 776.89L832.02 704.78L861.25 716.59L871.43 788.72Z" fill="#026D7D"/>
<path d="M739.281 696.55L784.691 703.74H784.701L784.991 703.37L797.251 688.24L797.541 687.87L781.071 644.94L768.541 660.42L778.041 685.21L751.811 681.07L739.281 696.55Z" fill="#E4032C"/>
<path d="M1238.93 1183L1263.28 1181.63L1294.08 1228.69L1269.77 1230.05L1238.93 1183Z" fill="#232F60"/>
<path d="M872.16 1314.74L903.93 1302.55L964.91 1351.93L933.19 1364.1L872.16 1314.74Z" fill="#026D7D"/>
<path d="M1183.19 1276.33L1141.92 1257.09L1141.54 1257.36L1125.74 1268.42L1125.36 1268.69L1129.33 1314.05L1145.48 1302.74L1143.2 1276.55L1167.04 1287.64L1183.19 1276.33Z" fill="#E4032C"/>
<path d="M1484.2 1019.53L1440.68 1033.67L1440.59 1034.13L1436.56 1053.08L1436.46 1053.54L1470.47 1084.16L1474.58 1064.78L1454.96 1047.09L1480.08 1038.91L1484.2 1019.53Z" fill="#E4032C"/>
<path d="M1073.28 626.59L1068.18 675.13L1068.58 675.43L1085.3 687.57L1085.71 687.87L1130.3 668.02L1113.2 655.6L1087.45 667.04L1090.37 639.01L1073.28 626.59Z" fill="#E4032C"/>
<path d="M751.52 1091.36L768.5 1135.59H768.51L768.99 1135.67L788.8 1138.81L789.28 1138.88H789.29L819.1 1102.06L798.84 1098.85L781.61 1120.1L771.79 1094.56L751.52 1091.36Z" fill="#E4032C"/>
<path d="M1000.55 524.12L976.7 527.81L956.57 579.68L980.38 576L1000.55 524.12Z" fill="#66AF55"/>
<path d="M1348.71 752.57L1372.37 747.45L1409.86 788.79L1386.24 793.89L1348.71 752.57Z" fill="#232F60"/>
<path d="M1226.44 594L1201.96 613.12L1135.54 586.29L1159.98 567.19L1226.44 594Z" fill="#026D7D"/>
<path d="M978.921 686.75L947.601 688.4L908.211 627.74L939.481 626.1L978.921 686.75Z" fill="#026D7D"/>
<path d="M681.242 871.77L694.872 852.15L749.772 856.75L736.162 876.34L681.242 871.77Z" fill="#232F60"/>
<path d="M1434.41 1113.12L1387.35 1111.48L1387.09 1111.89L1376.52 1128.8L1376.27 1129.21L1398.37 1170.79L1409.18 1153.5L1396.43 1129.48L1423.6 1130.41L1434.41 1113.12Z" fill="#E4032C"/>
<path d="M1335.23 1323.46L1311.25 1323.96L1282.59 1276.65L1306.53 1276.14L1335.23 1323.46Z" fill="#232F60"/>
<path d="M608.508 995.05L647.468 1030.13L647.978 1029.96L669.098 1023.1L669.608 1022.94L680.508 971.65L658.918 978.67L652.608 1008.28L630.098 988.03L608.508 995.05Z" fill="#E4032C"/>
<path d="M733.251 1157.41L721.871 1187.05L649.551 1198.51L660.911 1168.91L733.251 1157.41Z" fill="#026D7D"/>
<path d="M869.879 1280.89L844.609 1300.64L776.039 1272.93L801.279 1253.22L869.879 1280.89Z" fill="#026D7D"/>
<path d="M1233.94 737.39L1217.73 719.51L1234.73 666.52L1250.92 684.37L1233.94 737.39Z" fill="#232F60"/>
<path d="M1408.01 947.82L1389.54 920.45L1422.93 852L1441.36 879.34L1408.01 947.82Z" fill="#026D7D"/>
</g>
<g opacity="0.15" clip-path="url(#clip1_232_571)">
<path d="M1435.51 256.798L1415.44 262.088L1402.89 308.285L1422.92 302.995L1435.51 256.798Z" fill="#66AF55"/>
<path d="M646.8 333.741L659.905 353.767L635.027 403.006L621.961 383.02L646.8 333.741Z" fill="#232F60"/>
<path d="M1626.24 472.848L1623.42 432.657L1623.06 432.478L1607.73 425L1607.35 424.821L1573.96 447.353L1589.63 454.99L1608.92 442.003L1610.55 465.191L1626.24 472.848Z" fill="#E4032C"/>
<path d="M523.158 842.663L511.027 825.819L463.398 830.652L475.529 847.456L523.158 842.663Z" fill="#66AF55"/>
<path d="M1434.93 599.846L1439.68 579.641L1404.8 546.867L1400.07 567.032L1434.93 599.846Z" fill="#66AF55"/>
<path d="M1480.61 131.472L1496.34 166.771L1443.96 238.86L1428.27 203.621L1480.61 131.472Z" fill="#026D7D"/>
<path d="M191.672 606.905L211.479 600.004L248.13 631.624L228.343 638.525L191.672 606.905Z" fill="#232F60"/>
<path d="M521.968 796.227L556.094 773.198L556.074 772.781L554.861 755.4L554.821 754.962L517.832 736.925L519.065 754.704L540.423 765.144L520.735 778.448L521.968 796.227Z" fill="#E4032C"/>
<path d="M531.968 289.095L505.976 281.657L490.922 221.181L516.854 228.619L531.968 289.095Z" fill="#026D7D"/>
<path d="M1776.64 973.399L1764.91 994.757L1708.71 995.951L1720.44 974.632L1776.64 973.399Z" fill="#232F60"/>
<path d="M1907.9 822.677L1894.45 864.081V864.101L1894.75 864.419L1907.08 878.121L1907.38 878.459L1949.98 869.411L1937.37 855.391L1912.77 860.601L1920.52 836.697L1907.9 822.677Z" fill="#E4032C"/>
<path d="M1000.36 344.937L1010.05 370.153L970.833 418.577L961.168 393.401L1000.36 344.937Z" fill="#026D7D"/>
<path d="M1264 443.615L1284.51 449.044L1297.33 496.256L1276.87 490.846L1264 443.615Z" fill="#232F60"/>
<path d="M777.117 470.7L795.95 479.411L800.305 527.059L781.492 518.369L777.117 470.7Z" fill="#232F60"/>
<path d="M1502.94 653.938L1481.68 658.154L1448.75 620.548L1469.97 616.352L1502.94 653.938Z" fill="#232F60"/>
<path d="M1290.84 317.89L1283 337.101L1312.33 374.925L1320.17 355.755L1290.84 317.89Z" fill="#66AF55"/>
<path d="M675.316 1287.13L634.25 1310.84V1311.34V1331.4V1331.9L675.316 1355.6V1335.08L651.611 1321.38L675.316 1307.66V1287.13Z" fill="#E4032C"/>
<path d="M1701.38 448.924L1690.64 419.731L1736.56 364.584L1747.3 393.738L1701.38 448.924Z" fill="#232F60"/>
<path d="M1581.08 510.295L1573.17 542.532L1499.66 563.89L1507.58 531.713L1581.08 510.295Z" fill="#232F60"/>
<path d="M1953.95 983.701L1916.94 1000.17L1841.38 945.259L1878.32 928.813L1953.95 983.701Z" fill="#026D7D"/>
<path d="M395.745 869.132L401.254 899.758L346.466 946.094L340.957 915.508L395.745 869.132Z" fill="#232F60"/>
<path d="M326.818 1227.75L306.096 1204.54L235.836 1219.22L256.558 1242.39L326.818 1227.75Z" fill="#66AF55"/>
<path d="M1000.13 227.803L951.266 263.301L951.325 263.918L954.01 289.353L954.07 289.969L1009.24 314.549L1006.51 288.537L974.653 274.318L1002.85 253.815L1000.13 227.803Z" fill="#E4032C"/>
<path d="M251.945 907.235L220.723 877.087L244.945 779.979L276.107 810.068L251.945 907.235Z" fill="#026D7D"/>
<path d="M1688.13 956.535L1656.17 898.863H1655.5L1627.58 898.366H1626.9L1592.93 954.864L1621.49 955.361L1641.12 922.747L1659.59 956.037L1688.13 956.535Z" fill="#E4032C"/>
<path d="M1878.21 636.695L1821.1 656.363L1820.98 656.98L1816.1 682.077L1815.98 682.693L1861.56 722.328L1866.56 696.654L1840.25 673.744L1873.22 662.369L1878.21 636.695Z" fill="#E4032C"/>
<path d="M1470.25 1262.43L1489.82 1235.29L1566.58 1243.08L1547.03 1270.17L1470.25 1262.43Z" fill="#232F60"/>
<path d="M571.19 668.196L524.197 669.031L468.375 576.12L515.308 575.305L571.19 668.196Z" fill="#026D7D"/>
<path d="M1581.12 1060.05L1618.77 1148.74L1619.76 1148.88L1660.25 1153.85L1661.24 1153.97L1719.23 1077.01L1677.83 1071.92L1644.3 1116.34L1622.53 1065.14L1581.12 1060.05Z" fill="#E4032C"/>
<path d="M410.342 548.836L385.185 503.056L264.73 500.511L289.847 546.23L410.342 548.836Z" fill="#66AF55"/>
<path d="M1631.34 644L1562.54 705.756L1562.55 705.775L1562.74 706.69L1570.83 745.003L1571.03 745.937L1658.91 774.622L1650.64 735.453L1599.91 718.866L1639.61 683.169L1631.34 644Z" fill="#E4032C"/>
<path d="M527.578 1019.26L482.256 1004.34L400.203 1077.69L445.465 1092.58L527.578 1019.26Z" fill="#66AF55"/>
<path d="M728.256 177.987L634.43 174.706V174.725L633.913 175.541L612.853 209.249L612.336 210.064L656.405 292.952L677.942 258.489L652.527 210.601L706.719 212.451L728.256 177.987Z" fill="#E4032C"/>
<path d="M1167.59 84.1011L1165.86 139.426L1053.36 199.763L1055.09 144.517L1167.59 84.1011Z" fill="#232F60"/>
<path d="M1558.77 380.812L1597.09 354.183L1588.1 246.974L1549.84 273.562L1558.77 380.812Z" fill="#66AF55"/>
<path d="M690.929 600.262L632.7 576.736L612.555 433.333L670.684 456.819L690.929 600.262Z" fill="#026D7D"/>
<path d="M428.121 416.966L518.427 431.265H518.447L519.024 430.529L543.405 400.44L543.982 399.705L511.228 314.331L486.31 345.115L505.202 394.415L453.039 386.182L428.121 416.966Z" fill="#E4032C"/>
<path d="M1909.53 1059.27L1822.99 1087.39L1822.81 1088.31L1814.79 1125.99L1814.59 1126.91L1882.23 1187.8L1890.4 1149.26L1851.38 1114.08L1901.34 1097.81L1909.53 1059.27Z" fill="#E4032C"/>
<path d="M1092.34 277.838L1082.2 374.368L1082.99 374.965L1116.25 399.108L1117.06 399.704L1205.74 360.229L1171.73 335.529L1120.52 358.28L1126.33 302.537L1092.34 277.838Z" fill="#E4032C"/>
<path d="M452.461 1202.12L486.229 1290.08H486.249L487.203 1290.23L526.599 1296.48L527.553 1296.62H527.573L586.856 1223.4L546.565 1217.01L512.3 1259.27L492.771 1208.48L452.461 1202.12Z" fill="#E4032C"/>
<path d="M947.704 74.0586L900.274 81.3968L860.242 184.55L907.593 177.231L947.704 74.0586Z" fill="#66AF55"/>
<path d="M1640.09 528.372L1687.14 518.19L1761.69 600.402L1714.72 610.545L1640.09 528.372Z" fill="#232F60"/>
<path d="M1396.93 213.027L1348.24 251.051L1216.16 197.695L1264.76 159.711L1396.93 213.027Z" fill="#026D7D"/>
<path d="M904.69 397.477L842.404 400.758L764.07 280.125L826.256 276.864L904.69 397.477Z" fill="#026D7D"/>
<path d="M312.703 765.422L339.809 726.404L448.987 735.552L421.921 774.51L312.703 765.422Z" fill="#232F60"/>
<path d="M1810.51 1245.39L1716.93 1242.13L1716.41 1242.94L1695.39 1276.57L1694.89 1277.39L1738.84 1360.08L1760.34 1325.69L1734.98 1277.93L1789.01 1279.77L1810.51 1245.39Z" fill="#E4032C"/>
<path d="M168.062 1010.59L245.541 1080.35L246.556 1080.01L288.557 1066.37L289.571 1066.05L311.247 964.052L268.312 978.012L255.763 1036.9L210.998 996.626L168.062 1010.59Z" fill="#E4032C"/>
<path d="M1411.85 498.184L1379.61 462.627L1413.42 357.247L1445.61 392.744L1411.85 498.184Z" fill="#232F60"/>
<path d="M1758.01 916.662L1721.28 862.232L1787.68 726.106L1824.33 780.477L1758.01 916.662Z" fill="#026D7D"/>
</g>
<defs>
<clipPath id="clip0_232_571">
<rect width="1060" height="821" fill="white" transform="translate(524 487)"/>
</clipPath>
<clipPath id="clip1_232_571">
<rect width="2108" height="1308" fill="white"/>
</clipPath>
</defs>
</svg>
