<svg width="145" height="151" viewBox="0 0 145 151" fill="none" xmlns="http://www.w3.org/2000/svg">
<g filter="url(#filter0_d_266_100)">
<path d="M32.7738 121.484C32.7738 124.559 34.0121 125.787 37.1149 125.787C48.2772 125.787 111.497 125.787 115.867 125.787C118.563 125.787 119.865 124.502 119.865 121.852C119.865 93.3433 119.872 64.8343 119.886 36.3252C119.91 35.7781 119.814 35.2323 119.604 34.7266C119.393 34.2209 119.074 33.7677 118.669 33.3993C113.319 28.3259 108.02 23.2064 102.621 18.186C101.834 17.4985 100.834 17.1025 99.7902 17.0645C78.7864 17.0008 57.7802 16.9843 36.7717 17.0149H36.5063C34.1111 17.1352 32.7844 18.4974 32.7702 20.9067C32.7596 23.7725 32.7702 108.995 32.7738 121.484ZM102.118 33.8699C101.849 33.8699 101.365 33.2649 101.361 32.9359C101.304 29.5536 101.326 26.1712 101.326 22.4351L113.376 33.8982C109.382 33.8982 105.748 33.93 102.115 33.8699H102.118Z" fill="url(#paint0_radial_266_100)"/>
</g>
<path d="M48.9465 45.8845C58.2089 45.8845 67.4737 45.8845 76.7408 45.8845H104.005C104.449 45.8588 104.896 45.873 105.338 45.927C106.4 46.1216 107.107 46.7478 107.139 47.88C107.171 49.0121 106.495 49.6737 105.409 49.886C104.974 49.9545 104.533 49.9806 104.093 49.9638H48.9005C47.3119 49.9143 46.3177 49.1112 46.3425 47.8906C46.3673 46.67 47.3402 45.8845 48.9465 45.8845ZM46.4451 75.7769C46.6998 75.1224 47.5065 74.6448 48.1363 74.1955C48.3698 74.0256 48.8226 74.1565 49.1764 74.1565H104.369C104.723 74.1324 105.078 74.1407 105.43 74.1813C106.534 74.39 107.16 75.0835 107.132 76.2015C107.143 76.6721 106.975 77.1293 106.662 77.4807C106.348 77.8321 105.913 78.0514 105.444 78.0943C105.05 78.1362 104.652 78.1445 104.256 78.1191H76.7161C67.4065 78.1191 58.098 78.1191 48.7908 78.1191C47.0996 78.1226 45.9498 77.0612 46.4451 75.7769ZM46.3743 61.7913C46.4034 61.3437 46.5961 60.9225 46.9159 60.608C47.2356 60.2935 47.66 60.1076 48.108 60.086C48.5891 60.04 49.0774 60.04 49.5621 60.04H103.824C104.309 60.04 104.797 60.04 105.278 60.0718C106.41 60.1815 107.047 60.8467 107.121 61.954C107.196 63.0614 106.506 63.7549 105.444 64.0096C105.052 64.0724 104.653 64.089 104.256 64.0591C85.903 64.0591 67.5515 64.0591 49.2012 64.0591C48.6764 64.0837 48.1512 64.0191 47.648 63.8681C47.2146 63.7437 46.8435 63.4615 46.6078 63.0771C46.372 62.6927 46.2888 62.234 46.3743 61.7913ZM49.3109 88.2165C67.6211 88.2165 85.929 88.2165 104.234 88.2165C104.797 88.2165 105.536 88.1563 105.88 88.4712C106.435 88.9736 106.998 89.7378 107.068 90.4383C107.16 91.3794 106.442 92.0481 105.43 92.179C104.948 92.2274 104.464 92.244 103.98 92.2286H49.3215C47.3155 92.2286 46.3319 91.5705 46.3283 90.2437C46.3248 88.917 47.365 88.2165 49.3109 88.2165ZM104.521 106.426C100.902 106.426 97.2859 106.426 93.6665 106.426H49.463C47.4004 106.426 46.346 105.74 46.3283 104.396C46.3107 103.051 47.3544 102.354 49.4312 102.354H104.489C106.212 102.383 107.178 103.14 107.139 104.431C107.1 105.722 106.163 106.402 104.521 106.426Z" fill="#C9C9C9"/>
<path d="M119.148 33.8983C115.154 33.8983 104.909 33.8983 101.276 33.8558C101.007 33.8558 100.287 33.2508 100.283 32.9218C100.226 29.5395 100.283 20.7361 100.283 17C102.269 17 104.751 20.4752 107.233 22.461L119.148 33.8983Z" fill="#C9C9C9"/>
<circle cx="33.2624" cy="84.0211" r="33.2624" fill="url(#paint1_radial_266_100)" fill-opacity="0.5"/>
<circle cx="33.2624" cy="84.0211" r="33.2624" fill="url(#paint2_radial_266_100)"/>
<circle cx="33.2624" cy="84.0211" r="33.2624" fill="#56BB0E"/>
<g filter="url(#filter1_d_266_100)">
<path fill-rule="evenodd" clip-rule="evenodd" d="M39.2265 64.9111C39.2265 61.482 36.4467 58.7021 33.0176 58.7021C29.5884 58.7021 26.8086 61.482 26.8086 64.9111V84.425C26.8086 87.8542 29.5884 90.634 33.0176 90.634C36.4467 90.634 39.2265 87.8542 39.2265 84.425L39.2265 64.9111ZM39.2265 101.497C39.2265 98.0682 36.4467 95.2883 33.0176 95.2883C29.5884 95.2883 26.8086 98.0682 26.8086 101.497C26.8086 104.926 29.5884 107.706 33.0176 107.706C36.4467 107.706 39.2265 104.926 39.2265 101.497Z" fill="url(#paint3_radial_266_100)"/>
<path fill-rule="evenodd" clip-rule="evenodd" d="M39.2265 64.9111C39.2265 61.482 36.4467 58.7021 33.0176 58.7021C29.5884 58.7021 26.8086 61.482 26.8086 64.9111V84.425C26.8086 87.8542 29.5884 90.634 33.0176 90.634C36.4467 90.634 39.2265 87.8542 39.2265 84.425L39.2265 64.9111ZM39.2265 101.497C39.2265 98.0682 36.4467 95.2883 33.0176 95.2883C29.5884 95.2883 26.8086 98.0682 26.8086 101.497C26.8086 104.926 29.5884 107.706 33.0176 107.706C36.4467 107.706 39.2265 104.926 39.2265 101.497Z" fill="url(#paint4_linear_266_100)" fill-opacity="0.2"/>
</g>
<defs>
<filter id="filter0_d_266_100" x="15.7656" y="0" width="129.125" height="150.787" filterUnits="userSpaceOnUse" color-interpolation-filters="sRGB">
<feFlood flood-opacity="0" result="BackgroundImageFix"/>
<feColorMatrix in="SourceAlpha" type="matrix" values="0 0 0 0 0 0 0 0 0 0 0 0 0 0 0 0 0 0 127 0" result="hardAlpha"/>
<feOffset dx="4" dy="4"/>
<feGaussianBlur stdDeviation="10.5"/>
<feComposite in2="hardAlpha" operator="out"/>
<feColorMatrix type="matrix" values="0 0 0 0 0 0 0 0 0 0 0 0 0 0 0 0 0 0 0.25 0"/>
<feBlend mode="normal" in2="BackgroundImageFix" result="effect1_dropShadow_266_100"/>
<feBlend mode="normal" in="SourceGraphic" in2="effect1_dropShadow_266_100" result="shape"/>
</filter>
<filter id="filter1_d_266_100" x="20.5996" y="49.8322" width="33.7059" height="70.2918" filterUnits="userSpaceOnUse" color-interpolation-filters="sRGB">
<feFlood flood-opacity="0" result="BackgroundImageFix"/>
<feColorMatrix in="SourceAlpha" type="matrix" values="0 0 0 0 0 0 0 0 0 0 0 0 0 0 0 0 0 0 127 0" result="hardAlpha"/>
<feOffset dx="4.43498" dy="1.77399"/>
<feGaussianBlur stdDeviation="5.32198"/>
<feComposite in2="hardAlpha" operator="out"/>
<feColorMatrix type="matrix" values="0 0 0 0 0 0 0 0 0 0 0 0 0 0 0 0 0 0 0.25 0"/>
<feBlend mode="normal" in2="BackgroundImageFix" result="effect1_dropShadow_266_100"/>
<feBlend mode="normal" in="SourceGraphic" in2="effect1_dropShadow_266_100" result="shape"/>
</filter>
<radialGradient id="paint0_radial_266_100" cx="0" cy="0" r="1" gradientUnits="userSpaceOnUse" gradientTransform="translate(15.3898 97.9218) rotate(15.5241) scale(74.1961 59.4215)">
<stop stop-color="#B0B0B0"/>
<stop offset="1" stop-color="white"/>
</radialGradient>
<radialGradient id="paint1_radial_266_100" cx="0" cy="0" r="1" gradientUnits="userSpaceOnUse" gradientTransform="translate(-2.10948e-07 104.866) rotate(-72.2996) scale(65.6407)">
<stop stop-color="#288D42"/>
<stop offset="1" stop-color="#A4C29E"/>
</radialGradient>
<radialGradient id="paint2_radial_266_100" cx="0" cy="0" r="1" gradientUnits="userSpaceOnUse" gradientTransform="translate(24.8359 6.85248) rotate(9.06138) scale(104.192)">
<stop stop-color="#C3DCAA"/>
<stop offset="1" stop-color="#71B73F"/>
</radialGradient>
<radialGradient id="paint3_radial_266_100" cx="0" cy="0" r="1" gradientUnits="userSpaceOnUse" gradientTransform="translate(48.54 60.0326) rotate(126.384) scale(52.3346 52.3347)">
<stop stop-color="#C4C4C4"/>
<stop offset="0.540969" stop-color="#F3E4FF"/>
<stop offset="0.958333" stop-color="#F3F3F3"/>
</radialGradient>
<linearGradient id="paint4_linear_266_100" x1="41.2223" y1="107.354" x2="25.2564" y2="91.2327" gradientUnits="userSpaceOnUse">
<stop stop-color="#F3F3F3"/>
<stop offset="1" stop-color="white"/>
</linearGradient>
</defs>
</svg>
