<svg width="387" height="396" viewBox="0 0 387 396" fill="none" xmlns="http://www.w3.org/2000/svg">
<path d="M212.498 142.426L217.201 122.431L182.684 90L178 109.955L212.498 142.426Z" fill="#66AF55"/>
<path d="M345.303 273L332 313.972V313.992L332.295 314.307L344.496 327.866L344.792 328.2L386.944 319.246L374.468 305.372L350.125 310.528L357.799 286.874L345.303 273Z" fill="#E4032C"/>
<path d="M53.6259 289.194L32.5888 293.366L0 256.152L20.9977 252L53.6259 289.194Z" fill="white"/>
<path d="M355.608 90.0508L299.089 109.514L298.971 110.124L294.149 134.959L294.031 135.569L339.136 174.79L344.076 149.384L318.04 126.713L350.668 115.457L355.608 90.0508Z" fill="#66AF55"/>
<path d="M111.314 97.2772L43.2382 158.388L43.2422 158.408L43.4332 159.313L51.4356 197.226L51.6307 198.15L138.597 226.536L130.415 187.776L80.2085 171.361L119.495 136.038L111.314 97.2772Z" fill="#E4032C"/>
<path d="M236.664 367.094L200.316 313.232L266.025 178.527L302.294 232.33L236.664 367.094Z" fill="#232F60"/>
<path d="M276.559 0L311.34 38.3535L264.855 48.3906L220.902 0H276.559Z" fill="white"/>
<path d="M0 87.4199V57.8535L71.5664 37L63.7344 68.9004L0 87.4199Z" fill="#66AF55"/>
<path d="M107.223 396H78.6641L106.926 348.989H107.594L135.223 349.481H135.891L161.668 396H133.695L120.996 373.116L107.223 396Z" fill="#66AF55"/>
<path d="M378.98 396H319.992L319.156 395.393L355.719 379.118L378.98 396Z" fill="white"/>
</svg>
