<svg width="19" height="19" viewBox="0 0 19 19" fill="none" xmlns="http://www.w3.org/2000/svg">
<path d="M0 8.99902H2C2 4.94287 4.94922 2 9.01172 2V0C3.875 0 0 3.86914 0 8.99902Z" fill="#00255D"/>
<path d="M6 9C6 6.89746 6.89844 6 9 6V4C5.77344 4 4 5.77539 4 9H6Z" fill="#00255D"/>
<path d="M6.28125 11.1836C6.02344 11.1753 5.76953 11.2686 5.57812 11.4434L1.51562 15.1392C1.32031 15.3145 1.20312 15.5576 1.1875 15.8174C1.17188 16.0771 1.25781 16.333 1.42578 16.5303L3.28906 18.7012C3.46094 18.875 3.69141 18.9785 3.9375 18.9922L4.29297 19C5.67578 19 10.6953 18.707 14.6992 14.7021C19.293 10.1084 19.0078 4.18604 18.9922 3.93604C18.9766 3.69189 18.875 3.46094 18.7031 3.28711L16.5312 1.42627C16.3359 1.25684 16.0781 1.17139 15.8203 1.1875C15.5586 1.20361 15.3164 1.3208 15.1406 1.51318L11.4453 5.57617C11.2695 5.76807 11.1758 6.021 11.1875 6.28027C11.1953 6.54004 11.3008 6.78613 11.4883 6.96729L13.9492 9.36133C13.8398 9.93311 13.4805 11.0942 12.2891 12.2871C11.0977 13.4761 9.9375 13.8374 9.36328 13.9473L6.96875 11.4863C6.78906 11.3003 6.54297 11.1914 6.28125 11.1836Z" fill="#00255D"/>
</svg>
