<svg width="295" height="61" viewBox="0 0 295 61" fill="none" xmlns="http://www.w3.org/2000/svg">
<path d="M8.48261 15.8296L16.7511 7.56106L19.9987 10.8086L5.15748 25.6498C5.09098 25.1399 5.05772 24.6301 5.05772 24.1091C5.05772 20.9835 6.27694 18.0463 8.48261 15.8406M26.4827 17.6251L10.1119 34.007L8.77079 32.6658L8.72646 32.6215C8.72646 32.6215 8.5602 32.4663 8.48261 32.3776C7.92842 31.8235 7.42966 31.2138 7.00847 30.571L23.3792 14.1892L25.0196 15.8296C25.5738 16.3837 26.0615 16.9823 26.4827 17.614M25.0307 32.3666L16.7733 40.6572L13.5036 37.3875L28.3448 22.5463C28.8103 26.0377 27.713 29.7065 25.0418 32.3776M5.41241 36.0685L16.7844 47.4405L28.3115 35.8801L29.0098 35.1708V35.1486C34.6071 28.9417 34.6403 19.465 29.1206 13.2138L16.7622 0.811035L5.10206 12.4712C1.98752 15.5857 0.269531 19.72 0.269531 24.1313C0.269531 28.5316 1.98752 32.6769 5.09098 35.7804C5.17965 35.869 5.3459 36.0242 5.40132 36.0796" fill="#6FB74D"/>
<path d="M32.9078 34.6167C32.2871 37.2325 31.0457 39.7263 29.1393 41.8433V41.8655L28.441 42.5749L16.9139 54.1352L5.54195 42.7633C5.47545 42.7079 5.30919 42.5416 5.2316 42.464C3.03701 40.2805 1.55179 37.565 0.864591 34.6278H0.676167C0.498826 35.5921 0.410156 36.5674 0.410156 37.5539C0.410156 41.9652 2.12814 46.0995 5.2316 49.203C5.30919 49.2805 5.47545 49.4468 5.54195 49.5022L16.9139 60.8742L28.441 49.3138L29.1393 48.6044V48.5823C32.6529 44.6808 33.9608 39.4936 33.0962 34.6167H32.9078Z" fill="#6FB74D"/>
<path d="M52.2766 9.00195H51.4453V52.6499H52.2766V9.00195Z" fill="#232F60"/>
<path d="M80.989 11.0635V26.6584H77.143V15.1534H70.3929V26.6584H66.5469V11.0635H80.989Z" fill="#232F60"/>
<path d="M100.311 15.5084C100.743 16.517 100.965 17.6254 100.965 18.8446C100.965 20.0638 100.743 21.1611 100.311 22.1697C99.8788 23.1783 99.2914 24.0429 98.5709 24.7744C97.8505 25.4948 97.0081 26.0712 96.0549 26.4702C95.1017 26.8692 94.1153 27.0798 93.0845 27.0798C91.9317 27.0798 90.9453 26.8803 90.1362 26.4924C89.316 26.1045 88.7729 25.6057 88.5179 25.0293V33.1094H84.6719V11.0638H88.396V12.7042C88.662 12.1167 89.2051 11.629 90.0475 11.23C90.8899 10.8421 91.8763 10.6426 93.029 10.6426C94.082 10.6426 95.0795 10.8421 96.0438 11.23C97.0081 11.6179 97.8505 12.1832 98.5709 12.9148C99.3025 13.6463 99.8788 14.5108 100.311 15.5194M96.7532 20.5293C96.9749 20.0195 97.0857 19.4542 97.0857 18.8557C97.0857 18.2571 96.9749 17.6919 96.7532 17.1931C96.5315 16.6832 96.2212 16.251 95.8332 15.8963C95.4342 15.5305 94.9687 15.2534 94.4145 15.0539C93.8603 14.8544 93.2507 14.7547 92.5857 14.7547C91.6214 14.7547 90.7569 14.9542 90.0143 15.3421C89.2606 15.73 88.7729 16.2288 88.529 16.8052V20.9505C88.7729 21.5379 89.2606 22.0256 90.0143 22.4136C90.7569 22.8126 91.6214 23.001 92.5857 23.001C93.2507 23.001 93.8603 22.9012 94.4145 22.7017C94.9687 22.5022 95.4453 22.214 95.8332 21.8594C96.2323 21.4936 96.5315 21.0613 96.7532 20.5404" fill="#232F60"/>
<path d="M107.47 11.0635V20.4182L114.531 11.0635H118.366V26.6584H114.586V17.3036L107.526 26.6584H103.68V11.0635H107.47Z" fill="#232F60"/>
<path d="M137.573 18.8778C137.573 20.0638 137.352 21.1611 136.908 22.1586C136.465 23.1562 135.866 24.0207 135.113 24.7522C134.359 25.4838 133.483 26.049 132.497 26.4591C131.51 26.8692 130.458 27.0798 129.349 27.0798C128.241 27.0798 127.188 26.8692 126.201 26.4591C125.215 26.049 124.339 25.4727 123.586 24.7522C122.832 24.0207 122.222 23.1673 121.79 22.1586C121.347 21.1611 121.125 20.0638 121.125 18.8778C121.125 17.6919 121.347 16.6167 121.79 15.6081C122.233 14.5995 122.832 13.7239 123.586 12.9923C124.339 12.2608 125.215 11.6845 126.201 11.2633C127.188 10.8532 128.241 10.6426 129.349 10.6426C130.458 10.6426 131.51 10.8532 132.497 11.2633C133.483 11.6734 134.359 12.2497 135.113 12.9923C135.866 13.735 136.476 14.5995 136.908 15.6081C137.352 16.6167 137.573 17.714 137.573 18.8778ZM125.315 17.1931C125.093 17.7029 124.982 18.2682 124.982 18.8778C124.982 19.4874 125.093 20.0416 125.315 20.5404C125.536 21.0503 125.847 21.4825 126.235 21.8372C126.634 22.203 127.088 22.4801 127.631 22.6796C128.163 22.8791 128.74 22.9788 129.338 22.9788C129.937 22.9788 130.513 22.8791 131.034 22.6796C131.555 22.4801 132.02 22.1919 132.408 21.8372C132.807 21.4714 133.118 21.0392 133.35 20.5404C133.583 20.0305 133.705 19.4764 133.705 18.8778C133.705 18.2793 133.583 17.714 133.35 17.1931C133.118 16.6832 132.807 16.2399 132.408 15.8741C132.02 15.5084 131.555 15.2313 131.034 15.0318C130.513 14.8322 129.948 14.7325 129.338 14.7325C128.728 14.7325 128.163 14.8322 127.631 15.0318C127.099 15.2313 126.634 15.5194 126.235 15.8741C125.847 16.2399 125.536 16.6722 125.315 17.1931Z" fill="#232F60"/>
<path d="M155.862 15.5084C156.294 16.517 156.516 17.6254 156.516 18.8446C156.516 20.0638 156.294 21.1611 155.862 22.1697C155.43 23.1783 154.842 24.0429 154.122 24.7744C153.401 25.4948 152.559 26.0712 151.606 26.4702C150.652 26.8692 149.666 27.0798 148.635 27.0798C147.483 27.0798 146.496 26.8803 145.687 26.4924C144.867 26.1045 144.335 25.6057 144.069 25.0293V33.1094H140.223V11.0638H143.947V12.7042C144.213 12.1167 144.756 11.629 145.598 11.23C146.441 10.8421 147.427 10.6426 148.58 10.6426C149.633 10.6426 150.63 10.8421 151.595 11.23C152.559 11.6179 153.401 12.1832 154.122 12.9148C154.853 13.6463 155.43 14.5108 155.862 15.5194M152.304 20.5293C152.526 20.0195 152.636 19.4542 152.636 18.8557C152.636 18.2571 152.526 17.6919 152.304 17.1931C152.082 16.6832 151.772 16.251 151.384 15.8963C150.985 15.5305 150.519 15.2534 149.965 15.0539C149.411 14.8544 148.802 14.7547 148.136 14.7547C147.172 14.7547 146.308 14.9542 145.565 15.3421C144.822 15.73 144.324 16.2288 144.08 16.8052V20.9505C144.324 21.5379 144.822 22.0256 145.565 22.4136C146.308 22.8126 147.172 23.001 148.136 23.001C148.802 23.001 149.411 22.9012 149.965 22.7017C150.519 22.5022 150.996 22.214 151.384 21.8594C151.772 21.4936 152.082 21.0613 152.304 20.5404" fill="#232F60"/>
<path d="M163.025 11.0635V20.4182L170.074 11.0635H173.92V26.6584H170.141V17.3036L163.08 26.6584H159.234V11.0635H163.025Z" fill="#232F60"/>
<path d="M189.954 15.1534H185.133V26.6584H181.287V15.1534H176.477V11.0635H189.954V15.1534Z" fill="#232F60"/>
<path d="M200.163 23.2005C201.138 23.2005 202.058 23.0232 202.945 22.6685C203.831 22.3138 204.496 21.8483 204.94 21.2608L206.115 24.2313C205.627 25.0404 204.862 25.7165 203.798 26.2596C202.734 26.8027 201.482 27.0798 200.03 27.0798C198.844 27.0798 197.735 26.8914 196.716 26.5035C195.696 26.1155 194.809 25.5724 194.067 24.8631C193.324 24.1537 192.737 23.3003 192.315 22.2916C191.894 21.283 191.684 20.1414 191.684 18.8667C191.684 17.7584 191.872 16.7054 192.249 15.719C192.626 14.7325 193.158 13.8569 193.856 13.1032C194.554 12.3495 195.386 11.751 196.372 11.3076C197.347 10.8643 198.456 10.6426 199.686 10.6426C200.839 10.6426 201.881 10.8643 202.823 11.3187C203.765 11.7731 204.563 12.3827 205.217 13.1364C205.871 13.8901 206.381 14.7657 206.746 15.7522C207.112 16.7387 207.29 17.7805 207.29 18.8667C207.29 19.0884 207.29 19.3212 207.278 19.5761C207.267 19.831 207.245 20.0416 207.201 20.2301H195.629C195.807 21.2608 196.317 22.0145 197.148 22.4911C197.979 22.9677 198.988 23.2005 200.174 23.2005M203.355 17.0823C203.233 16.251 202.834 15.6303 202.147 15.1869C201.459 14.7547 200.639 14.533 199.697 14.533C198.755 14.533 197.902 14.7436 197.159 15.1869C196.416 15.6192 195.962 16.251 195.796 17.0823H203.366H203.355Z" fill="#232F60"/>
<path d="M222.486 15.1534H217.664V26.6584H213.829V15.1534H209.008V11.0635H222.486V15.1534Z" fill="#232F60"/>
<path d="M229.989 14.256C229.612 14.256 229.257 14.3114 228.947 14.4333C228.626 14.5442 228.338 14.6993 228.072 14.8878C227.806 15.0762 227.573 15.2979 227.362 15.5417C227.152 15.7855 226.963 16.0516 226.808 16.3287L225.434 13.9789C225.544 13.5245 225.755 13.1033 226.032 12.7043C226.32 12.3052 226.664 11.9506 227.074 11.6624C227.484 11.3631 227.961 11.1304 228.504 10.953C229.036 10.7757 229.623 10.687 230.244 10.687C231.053 10.687 231.774 10.8089 232.405 11.0528C233.026 11.2966 233.547 11.6402 233.979 12.0836C234.4 12.5158 234.722 13.0257 234.932 13.6131C235.154 14.2006 235.254 14.8213 235.254 15.4863C235.254 16.0516 235.187 16.5725 235.054 17.038C234.921 17.5146 234.733 17.9691 234.478 18.4235C234.223 18.8779 233.902 19.3324 233.536 19.7979C233.159 20.2634 232.716 20.7733 232.228 21.3274L230.654 23.0898H235.553V26.6587H225.522V23.8878L229.989 19.0331C230.31 18.6784 230.588 18.3792 230.82 18.1131C231.053 17.8471 231.242 17.6033 231.397 17.3594C231.552 17.1156 231.663 16.8939 231.751 16.6612C231.829 16.4395 231.873 16.1846 231.873 15.9075C231.873 15.442 231.707 15.054 231.363 14.7326C231.02 14.4112 230.554 14.256 229.978 14.256" fill="#E4032C"/>
<path d="M242.214 11.2855C243.211 10.8865 244.264 10.687 245.373 10.687C246.481 10.687 247.534 10.8865 248.531 11.2855C249.529 11.6846 250.405 12.2498 251.158 12.9703C251.912 13.6907 252.499 14.5552 252.943 15.5639C253.386 16.5725 253.597 17.6698 253.597 18.8668C253.597 20.0639 253.375 21.1834 252.943 22.1809C252.511 23.1784 251.912 24.043 251.158 24.7634C250.405 25.4839 249.529 26.0491 248.531 26.4481C247.534 26.8472 246.481 27.0467 245.373 27.0467C244.264 27.0467 243.211 26.8472 242.214 26.4481C241.216 26.0491 240.341 25.4839 239.587 24.7634C238.833 24.043 238.246 23.1784 237.802 22.1809C237.359 21.1834 237.148 20.075 237.148 18.8668C237.148 17.6587 237.37 16.5725 237.802 15.5639C238.246 14.5552 238.833 13.6907 239.587 12.9703C240.341 12.2498 241.216 11.6846 242.214 11.2855ZM245.373 23.4555C246.038 23.4555 246.669 23.3447 247.268 23.1119C247.855 22.8903 248.365 22.5688 248.798 22.1698C249.23 21.7708 249.562 21.2831 249.817 20.7289C250.061 20.1636 250.194 19.543 250.194 18.8558C250.194 18.1686 250.072 17.57 249.817 16.9937C249.573 16.4284 249.23 15.9407 248.798 15.5417C248.365 15.1427 247.855 14.8323 247.268 14.5996C246.68 14.3779 246.049 14.256 245.373 14.256C244.697 14.256 244.054 14.3668 243.466 14.5996C242.879 14.8213 242.38 15.1427 241.948 15.5417C241.515 15.9407 241.172 16.4284 240.928 16.9937C240.684 17.559 240.551 18.1796 240.551 18.8558C240.551 19.5319 240.673 20.1636 240.928 20.7289C241.172 21.2942 241.515 21.7708 241.948 22.1698C242.38 22.5688 242.879 22.8792 243.466 23.1119C244.054 23.3336 244.685 23.4555 245.373 23.4555Z" fill="#E4032C"/>
<path d="M259.064 23.4662C259.762 23.4662 260.328 23.3 260.749 22.9675C261.181 22.6349 261.392 22.1805 261.392 21.6152C261.392 21.1054 261.203 20.7064 260.815 20.4071C260.427 20.1078 259.906 19.9638 259.252 19.9638C258.798 19.9638 258.41 20.0192 258.089 20.1189C257.756 20.2187 257.512 20.3295 257.357 20.4404L256.814 18.0019L259.496 14.6435H255.185V11.0635H263.93V13.6127L261.27 16.8825C261.647 16.9711 262.046 17.1152 262.456 17.3258C262.866 17.5364 263.254 17.8246 263.597 18.2014C263.941 18.5783 264.229 19.0438 264.462 19.6091C264.684 20.1743 264.794 20.8615 264.794 21.6596C264.794 22.4022 264.661 23.1005 264.395 23.7544C264.129 24.4084 263.741 24.9736 263.243 25.4613C262.744 25.949 262.134 26.3369 261.436 26.614C260.727 26.9022 259.94 27.0352 259.075 27.0352C258.421 27.0352 257.834 26.9576 257.313 26.8135C256.792 26.6694 256.326 26.481 255.938 26.2372C255.551 25.9933 255.218 25.7273 254.952 25.4391C254.686 25.151 254.498 24.8517 254.387 24.5414L255.174 21.6596C255.595 22.1694 256.116 22.5906 256.725 22.9342C257.335 23.2778 258.122 23.4441 259.075 23.4441" fill="#E4032C"/>
<path d="M271.417 11.2855C272.414 10.8865 273.467 10.687 274.576 10.687C275.684 10.687 276.737 10.8865 277.735 11.2855C278.732 11.6846 279.608 12.2498 280.361 12.9703C281.115 13.6907 281.703 14.5552 282.146 15.5639C282.589 16.5725 282.8 17.6698 282.8 18.8668C282.8 20.0639 282.578 21.1834 282.146 22.1809C281.714 23.1784 281.115 24.043 280.361 24.7634C279.608 25.4839 278.732 26.0491 277.735 26.4481C276.737 26.8472 275.684 27.0467 274.576 27.0467C273.467 27.0467 272.414 26.8472 271.417 26.4481C270.419 26.0491 269.544 25.4839 268.79 24.7634C268.036 24.043 267.449 23.1784 267.006 22.1809C266.562 21.1834 266.352 20.075 266.352 18.8668C266.352 17.6587 266.573 16.5725 267.006 15.5639C267.438 14.5552 268.036 13.6907 268.79 12.9703C269.544 12.2498 270.419 11.6846 271.417 11.2855ZM274.576 23.4555C275.241 23.4555 275.873 23.3447 276.471 23.1119C277.059 22.8903 277.568 22.5688 278.001 22.1698C278.433 21.7708 278.776 21.2831 279.02 20.7289C279.264 20.1636 279.397 19.543 279.397 18.8558C279.397 18.1686 279.275 17.57 279.02 16.9937C278.776 16.4284 278.433 15.9407 278.001 15.5417C277.568 15.1427 277.059 14.8323 276.471 14.5996C275.884 14.3779 275.252 14.256 274.576 14.256C273.9 14.256 273.257 14.3668 272.669 14.5996C272.082 14.8213 271.583 15.1427 271.151 15.5417C270.719 15.9407 270.386 16.4284 270.131 16.9937C269.876 17.559 269.754 18.1796 269.754 18.8558C269.754 19.5319 269.876 20.1636 270.131 20.7289C270.375 21.2942 270.719 21.7708 271.151 22.1698C271.583 22.5688 272.082 22.8792 272.669 23.1119C273.257 23.3336 273.889 23.4555 274.576 23.4555Z" fill="#E4032C"/>
<path d="M291.095 8.41455H287.969L284.367 14.6436H287.482L291.095 8.41455Z" fill="#E4032C"/>
<path d="M287.969 8.41455H291.094L294.697 14.6436H291.571L287.969 8.41455Z" fill="#E4032C"/>
<path d="M77.6661 42.3306V46.9636L81.1575 42.3306H83.0639V50.0449H81.1908V45.4119L77.6994 50.0449H75.793V42.3306H77.6661Z" fill="#E4032C"/>
<path d="M85.0259 48.0283C85.181 47.7623 85.3362 47.4519 85.4914 47.1194C85.6466 46.7758 85.7796 46.399 85.9015 45.9889C86.0234 45.5788 86.1121 45.1243 86.1897 44.6477C86.2562 44.1711 86.3005 43.6502 86.3005 43.1071V42.3423H91.8756V48.0393H92.9508V52.1182H91.1109V50.0677H86.0899V52.1182H84.25V48.0393H85.048L85.0259 48.0283ZM89.9581 48.0283V44.3595H87.9963C87.9076 45.2241 87.7746 45.9556 87.5862 46.543C87.4089 47.1305 87.2094 47.6292 86.9988 48.0393H89.9581V48.0283Z" fill="#E4032C"/>
<path d="M97.9475 48.3385C98.4241 48.3385 98.8896 48.2498 99.3219 48.0724C99.7652 47.8951 100.087 47.6623 100.308 47.3742L100.896 48.8483C100.652 49.2473 100.275 49.5798 99.7431 49.8569C99.2221 50.1229 98.5903 50.267 97.881 50.267C97.2935 50.267 96.7394 50.1673 96.2406 49.9789C95.7307 49.7904 95.2985 49.5244 94.9327 49.1697C94.5669 48.8151 94.2677 48.3939 94.0682 47.8951C93.8576 47.3963 93.7578 46.8311 93.7578 46.1993C93.7578 45.6451 93.8465 45.1352 94.0349 44.6365C94.2233 44.1377 94.4783 43.7165 94.8329 43.3397C95.1765 42.9628 95.5866 42.6636 96.0743 42.4419C96.562 42.2202 97.1051 42.1094 97.7147 42.1094C98.28 42.1094 98.8009 42.2202 99.2665 42.4419C99.732 42.6636 100.131 42.9628 100.452 43.3397C100.774 43.7165 101.029 44.1488 101.206 44.6365C101.383 45.1242 101.472 45.6451 101.472 46.1771C101.472 46.288 101.472 46.4099 101.472 46.5318C101.472 46.6537 101.45 46.7646 101.439 46.8532H95.7086C95.7972 47.3631 96.0522 47.7399 96.4623 47.9727C96.8724 48.2055 97.3711 48.3274 97.9586 48.3274M99.5325 45.3015C99.477 44.8914 99.2665 44.5811 98.9339 44.3705C98.5903 44.1599 98.1913 44.049 97.7147 44.049C97.2381 44.049 96.828 44.1599 96.4512 44.3705C96.0854 44.5811 95.8526 44.8914 95.7751 45.3015H99.5214H99.5325Z" fill="#E4032C"/>
<path d="M110.642 44.5256C110.853 45.0244 110.964 45.5786 110.964 46.1771C110.964 46.7756 110.853 47.3298 110.642 47.8286C110.432 48.3274 110.143 48.7596 109.778 49.1143C109.423 49.469 109.002 49.7572 108.536 49.9567C108.071 50.1562 107.583 50.256 107.062 50.256C106.497 50.256 106.009 50.1562 105.599 49.9678C105.2 49.7683 104.923 49.5244 104.801 49.2362V53.2375H102.895V42.32H104.734V43.1291C104.867 42.8409 105.133 42.5971 105.555 42.3976C105.965 42.198 106.464 42.1094 107.029 42.1094C107.55 42.1094 108.048 42.2091 108.525 42.3976C109.002 42.5971 109.423 42.8742 109.778 43.2288C110.143 43.5946 110.42 44.0158 110.642 44.5146M108.88 46.9973C108.991 46.7424 109.046 46.4653 109.046 46.166C109.046 45.8668 108.991 45.5897 108.88 45.3458C108.769 45.0909 108.614 44.8803 108.425 44.703C108.226 44.5256 107.993 44.3815 107.716 44.2818C107.439 44.182 107.14 44.1377 106.807 44.1377C106.331 44.1377 105.898 44.2375 105.532 44.4259C105.167 44.6254 104.923 44.8692 104.801 45.1574V47.2079C104.923 47.4961 105.167 47.7399 105.532 47.9394C105.898 48.139 106.331 48.2276 106.807 48.2276C107.14 48.2276 107.439 48.1833 107.716 48.0835C107.993 47.9838 108.226 47.8397 108.425 47.6624C108.625 47.485 108.769 47.2633 108.88 47.0084" fill="#E4032C"/>
<path d="M112.294 43.4838C112.438 43.2621 112.615 43.0737 112.826 42.8963C113.036 42.7301 113.28 42.586 113.535 42.4641C113.79 42.3532 114.078 42.2645 114.366 42.198C114.665 42.1315 114.965 42.1094 115.253 42.1094C115.763 42.1094 116.228 42.1759 116.638 42.32C117.048 42.4641 117.414 42.6636 117.714 42.9185C118.013 43.1734 118.246 43.4948 118.412 43.8828C118.578 44.2707 118.656 44.703 118.656 45.1907V50.0343H116.816V49.3582C116.627 49.6463 116.328 49.868 115.929 50.0232C115.53 50.1784 115.12 50.2449 114.699 50.2449C114.278 50.2449 113.912 50.1895 113.579 50.0675C113.236 49.9456 112.936 49.7794 112.693 49.5688C112.438 49.3582 112.238 49.0922 112.105 48.7707C111.961 48.4604 111.895 48.1057 111.895 47.7178C111.895 47.3077 111.972 46.9419 112.138 46.6316C112.305 46.3212 112.526 46.0552 112.803 45.8335C113.081 45.6229 113.402 45.4567 113.768 45.3458C114.133 45.235 114.51 45.1796 114.898 45.1796C115.397 45.1796 115.807 45.235 116.117 45.3458C116.428 45.4567 116.649 45.5786 116.76 45.7116V45.501C116.76 45.0466 116.616 44.6919 116.317 44.4259C116.018 44.1599 115.585 44.0158 115.02 44.0158C114.532 44.0158 114.089 44.1155 113.69 44.304C113.291 44.4924 112.981 44.7362 112.748 45.0244L112.282 43.4616L112.294 43.4838ZM116.76 47.2744C116.683 47.1303 116.505 47.0084 116.239 46.9087C115.973 46.7978 115.663 46.7535 115.308 46.7535C114.81 46.7535 114.433 46.8311 114.178 46.9973C113.934 47.1525 113.801 47.3631 113.801 47.6291C113.801 47.8951 113.923 48.0946 114.189 48.2498C114.444 48.405 114.81 48.4825 115.286 48.4825C115.641 48.4825 115.951 48.4271 116.217 48.2941C116.483 48.1722 116.672 48.017 116.76 47.8397V47.2855V47.2744Z" fill="#E4032C"/>
<path d="M127.397 42.3306H129.248L130.456 50.0449H128.572L127.896 45.9661L126.1 50.0449H124.571L122.764 45.9661L122.077 50.0449H120.148L121.345 42.3306H123.052L125.225 47.2629L127.397 42.3306Z" fill="#E4032C"/>
<path d="M133.881 42.3306V46.9636L137.372 42.3306H139.279V50.0449H137.406V45.4119L133.903 50.0449H132.008V42.3306H133.881Z" fill="#E4032C"/>
<path d="M151.396 48.8819C151.163 49.2587 150.787 49.5912 150.266 49.8572C149.745 50.1232 149.146 50.2673 148.448 50.2673C147.905 50.2673 147.395 50.1676 146.907 49.9681C146.42 49.7686 145.987 49.4915 145.622 49.1257C145.245 48.7599 144.945 48.3387 144.735 47.84C144.513 47.3412 144.402 46.787 144.402 46.1885C144.402 45.59 144.513 45.0358 144.735 44.537C144.957 44.0382 145.256 43.606 145.622 43.2513C145.998 42.8966 146.431 42.6195 146.907 42.42C147.395 42.2205 147.905 42.1318 148.448 42.1318C149.135 42.1318 149.734 42.2648 150.244 42.5419C150.742 42.8079 151.108 43.1294 151.33 43.5062L150.787 45.0912C150.587 44.8474 150.299 44.6368 149.933 44.4483C149.567 44.2599 149.135 44.1602 148.659 44.1602C147.96 44.1602 147.395 44.3486 146.974 44.7254C146.553 45.1023 146.342 45.59 146.342 46.1996C146.342 46.8092 146.553 47.308 146.974 47.6848C147.395 48.0617 147.949 48.2501 148.659 48.2501C149.146 48.2501 149.578 48.1503 149.944 47.9508C150.31 47.7513 150.609 47.5296 150.82 47.2858L151.385 48.8929L151.396 48.8819Z" fill="#E4032C"/>
<path d="M158.797 44.3478H156.414V50.0449H154.508V44.3478H152.125V42.3306H158.797V44.3478Z" fill="#E4032C"/>
<path d="M159.938 43.4838C160.082 43.2621 160.26 43.0737 160.47 42.8963C160.681 42.7301 160.925 42.586 161.179 42.4641C161.434 42.3532 161.723 42.2645 162.011 42.198C162.31 42.1315 162.609 42.1094 162.897 42.1094C163.407 42.1094 163.873 42.1759 164.283 42.32C164.693 42.4641 165.059 42.6636 165.358 42.9185C165.657 43.1734 165.89 43.4948 166.056 43.8828C166.223 44.2707 166.3 44.703 166.3 45.1907V50.0343H164.46V49.3582C164.272 49.6463 163.973 49.868 163.574 50.0232C163.175 50.1784 162.764 50.2449 162.343 50.2449C161.922 50.2449 161.556 50.1895 161.224 50.0675C160.88 49.9456 160.581 49.7794 160.337 49.5688C160.082 49.3582 159.883 49.0922 159.75 48.7707C159.606 48.4604 159.539 48.1057 159.539 47.7178C159.539 47.3077 159.617 46.9419 159.783 46.6316C159.949 46.3212 160.171 46.0552 160.448 45.8335C160.725 45.6229 161.046 45.4567 161.412 45.3458C161.778 45.235 162.155 45.1796 162.543 45.1796C163.042 45.1796 163.452 45.235 163.762 45.3458C164.072 45.4567 164.294 45.5786 164.405 45.7116V45.501C164.405 45.0466 164.261 44.6919 163.961 44.4259C163.662 44.1599 163.23 44.0158 162.665 44.0158C162.177 44.0158 161.734 44.1155 161.335 44.304C160.936 44.4924 160.625 44.7362 160.393 45.0244L159.927 43.4616L159.938 43.4838ZM164.405 47.2744C164.327 47.1303 164.15 47.0084 163.884 46.9087C163.618 46.7978 163.308 46.7535 162.953 46.7535C162.454 46.7535 162.077 46.8311 161.833 46.9973C161.578 47.1525 161.457 47.3631 161.457 47.6291C161.457 47.8951 161.578 48.0946 161.844 48.2498C162.099 48.405 162.465 48.4825 162.942 48.4825C163.296 48.4825 163.607 48.4271 163.873 48.2941C164.139 48.1722 164.327 48.017 164.416 47.8397V47.2855L164.405 47.2744Z" fill="#E4032C"/>
<path d="M170.094 42.3306V45.0683H173.486V42.3306H175.392V50.0449H173.486V47.0966H170.094V50.0449H168.188V42.3306H170.094Z" fill="#E4032C"/>
<path d="M184.966 46.1989C184.966 46.7864 184.855 47.3295 184.633 47.8283C184.411 48.327 184.112 48.7482 183.735 49.114C183.358 49.4687 182.926 49.7568 182.439 49.9564C181.951 50.1559 181.43 50.2667 180.876 50.2667C180.322 50.2667 179.812 50.1669 179.313 49.9564C178.825 49.7568 178.393 49.4687 178.016 49.114C177.639 48.7593 177.34 48.327 177.129 47.8283C176.908 47.3295 176.797 46.7864 176.797 46.1989C176.797 45.6115 176.908 45.0795 177.129 44.5807C177.351 44.0819 177.65 43.6497 178.016 43.2839C178.393 42.9181 178.825 42.63 179.313 42.4305C179.801 42.231 180.322 42.1201 180.876 42.1201C181.43 42.1201 181.94 42.2199 182.439 42.4305C182.926 42.6411 183.358 42.9181 183.735 43.2839C184.112 43.6497 184.411 44.0819 184.633 44.5807C184.855 45.0795 184.966 45.6226 184.966 46.1989ZM178.892 45.3677C178.781 45.6226 178.725 45.8997 178.725 46.1989C178.725 46.4982 178.781 46.7753 178.892 47.0191C179.003 47.2741 179.158 47.4847 179.346 47.662C179.535 47.8393 179.767 47.9834 180.033 48.0832C180.299 48.1829 180.576 48.2273 180.876 48.2273C181.175 48.2273 181.452 48.1829 181.718 48.0832C181.973 47.9834 182.206 47.8393 182.405 47.662C182.605 47.4847 182.76 47.263 182.871 47.0191C182.982 46.7642 183.037 46.4982 183.037 46.1989C183.037 45.8997 182.982 45.6226 182.871 45.3677C182.76 45.1127 182.605 44.9021 182.405 44.7137C182.206 44.5364 181.984 44.3923 181.718 44.2925C181.463 44.1928 181.175 44.1485 180.876 44.1485C180.576 44.1485 180.299 44.1928 180.033 44.2925C179.767 44.3923 179.535 44.5364 179.346 44.7137C179.147 44.8911 179.003 45.1127 178.892 45.3677Z" fill="#E4032C"/>
<path d="M189.357 42.3308C189.745 42.3308 190.111 42.3751 190.454 42.4638C190.798 42.5524 191.086 42.6965 191.341 42.8739C191.585 43.0623 191.785 43.284 191.929 43.5611C192.073 43.8382 192.15 44.1596 192.15 44.5254C192.15 44.8468 192.106 45.1017 192.006 45.3123C191.906 45.5118 191.773 45.7113 191.574 45.8887C191.862 46.0771 192.106 46.3098 192.283 46.598C192.472 46.8862 192.56 47.2409 192.56 47.6842C192.56 48.0611 192.483 48.4047 192.328 48.6929C192.172 48.981 191.962 49.2249 191.707 49.4244C191.452 49.6239 191.142 49.7791 190.798 49.8788C190.454 49.9897 190.089 50.034 189.712 50.034H186.387V42.3086H189.357V42.3308ZM188.216 44.1042V45.4121H189.568C189.801 45.4121 189.978 45.3456 190.111 45.2125C190.244 45.0795 190.299 44.9354 190.299 44.7581C190.299 44.5808 190.233 44.4256 190.111 44.2926C189.978 44.1596 189.801 44.0931 189.557 44.0931H188.227L188.216 44.1042ZM188.216 46.9527V48.2828H189.967C190.188 48.2828 190.366 48.2163 190.488 48.0943C190.621 47.9724 190.687 47.8061 190.687 47.6066C190.687 47.4404 190.621 47.2852 190.488 47.1522C190.355 47.0192 190.177 46.9527 189.945 46.9527H188.204H188.216Z" fill="#E4032C"/>
<path d="M199.572 42.3306V50.056H197.666V47.7616H197.034L195.471 50.056H193.266L195.017 47.4734C194.562 47.2407 194.219 46.9303 193.964 46.5313C193.709 46.1323 193.587 45.6446 193.587 45.0793C193.587 44.6471 193.665 44.2591 193.809 43.9266C193.964 43.583 194.163 43.2949 194.418 43.0621C194.673 42.8293 194.984 42.652 195.349 42.519C195.715 42.3971 196.092 42.3306 196.502 42.3306H199.55H199.572ZM196.38 44.2481C196.103 44.2481 195.881 44.3257 195.715 44.4919C195.549 44.6582 195.471 44.8577 195.471 45.0904C195.471 45.3232 195.56 45.5227 195.726 45.6668C195.892 45.8109 196.114 45.8885 196.369 45.8885H197.655V44.2481H196.369H196.38Z" fill="#E4032C"/>
<path d="M207.489 44.3478H205.106V50.0449H203.199V44.3478H200.816V42.3306H207.489V44.3478Z" fill="#E4032C"/>
<path d="M215.15 48.8819C214.917 49.2587 214.541 49.5912 214.02 49.8572C213.499 50.1232 212.9 50.2673 212.202 50.2673C211.659 50.2673 211.149 50.1676 210.661 49.9681C210.173 49.7686 209.741 49.4915 209.375 49.1257C208.999 48.7599 208.699 48.3387 208.489 47.84C208.267 47.3412 208.156 46.787 208.156 46.1885C208.156 45.59 208.267 45.0358 208.489 44.537C208.71 44.0382 209.01 43.606 209.375 43.2513C209.752 42.8966 210.185 42.6195 210.661 42.42C211.149 42.2205 211.659 42.1318 212.202 42.1318C212.889 42.1318 213.488 42.2648 213.997 42.5419C214.496 42.8079 214.862 43.1294 215.084 43.5062L214.541 45.0912C214.341 44.8474 214.053 44.6368 213.687 44.4483C213.321 44.2599 212.889 44.1602 212.412 44.1602C211.714 44.1602 211.149 44.3486 210.728 44.7254C210.306 45.1023 210.096 45.59 210.096 46.1996C210.096 46.8092 210.306 47.308 210.728 47.6848C211.149 48.0617 211.703 48.2501 212.412 48.2501C212.9 48.2501 213.332 48.1503 213.698 47.9508C214.064 47.7513 214.363 47.5296 214.574 47.2858L215.139 48.8929L215.15 48.8819Z" fill="#E4032C"/>
<path d="M222.189 42.3306V50.056H220.283V47.7616H219.651L218.088 50.056H215.883L217.634 47.4734C217.18 47.2407 216.836 46.9303 216.581 46.5313C216.326 46.1323 216.204 45.6446 216.204 45.0793C216.204 44.6471 216.282 44.2591 216.426 43.9266C216.581 43.583 216.781 43.2949 217.036 43.0621C217.29 42.8293 217.601 42.652 217.967 42.519C218.332 42.3971 218.709 42.3306 219.119 42.3306H222.167H222.189ZM218.997 44.2481C218.72 44.2481 218.499 44.3257 218.332 44.4919C218.177 44.6582 218.088 44.8577 218.088 45.0904C218.088 45.3232 218.166 45.5227 218.343 45.6668C218.51 45.8109 218.731 45.8885 218.986 45.8885H220.272V44.2481H218.986H218.997Z" fill="#E4032C"/>
<path d="M71.5913 42.3306L74.7834 50.056L72.4891 50.0449L70.6824 45.5227L68.8647 50.0449H66.5703L69.7624 42.3306H71.5913Z" fill="#E4032C"/>
</svg>
