<svg xmlns="http://www.w3.org/2000/svg" width="2108" height="1308" fill="none" viewBox="0 0 2108 1308">
  <g clip-path="url(#a)" opacity=".5">
    <path fill="#66AF55" d="m1245.84 616.01-10.09 2.66-6.31 23.23 10.07-2.66 6.33-23.23Z"/>
    <path fill="#232F60" d="m849.24 654.7 6.59 10.07-12.51 24.76-6.57-10.05 12.49-24.78Z"/>
    <path fill="#66AF55" d="m748.828 1319.22 10.39.95 13.88-19.67-10.38-.94-13.89 19.66Z"/>
    <path fill="#E4032C" d="m921.659 1244.08-16.62 11.63.02.21.75 8.55.02.21 18.38 8.57-.77-8.74-10.61-4.96 9.59-6.72-.76-8.75Z"/>
    <path fill="#232F60" d="m1224.36 1279.01.32-10.44 21.21-11.37-.32 10.41-21.21 11.4Z"/>
    <path fill="#E4032C" d="m1341.75 724.65-1.42-20.21-.18-.09-7.71-3.76-.19-.09-16.79 11.33 7.88 3.84 9.7-6.53.82 11.66 7.89 3.85Z"/>
    <path fill="#66AF55" d="m787.07 910.61-6.1-8.47-23.95 2.43 6.1 8.45 23.95-2.41Zm458.48-122.1 2.39-10.16-17.54-16.48-2.38 10.14 17.53 16.5Z"/>
    <path fill="#026D7D" d="m1268.52 552.99 7.91 17.75-26.34 36.25-7.89-17.72 26.32-36.28Z"/>
    <path fill="#232F60" d="m620.383 792.06 9.96-3.47 18.43 15.9-9.95 3.47-18.44-15.9Zm560.507 398.77 11.1-2.4 17.59 19.4-11.08 2.39-17.61-19.39Z"/>
    <path fill="#E4032C" d="m786.471 887.26 17.16-11.58-.01-.21-.61-8.74-.02-.22-18.6-9.07.62 8.94 10.74 5.25-9.9 6.69.62 8.94Z"/>
    <path fill="#026D7D" d="m791.499 632.25-13.07-3.74-7.57-30.41 13.04 3.74 7.6 30.41Z"/>
    <path fill="#232F60" d="m1417.38 976.35-5.9 10.74-28.26.6 5.9-10.72 28.26-.62Z"/>
    <path fill="#E4032C" d="m1483.38 900.56-6.76 20.82v.01l.15.16 6.2 6.89.15.17 21.42-4.55-6.34-7.05-12.37 2.62 3.9-12.02-6.35-7.05Z"/>
    <path fill="#026D7D" d="m1027.03 660.33 4.87 12.68-19.72 24.35-4.86-12.66 19.71-24.37Z"/>
    <path fill="#232F60" d="m1159.6 709.95 10.31 2.73 6.45 23.74-10.29-2.72-6.47-23.75Zm-244.83 13.62 9.47 4.38 2.19 23.96-9.46-4.37-2.2-23.97Z"/>
    <path fill="#E4032C" d="m1078.33 1217.23 6.85 22.42h.01l.23.05 9.67 2.24.23.05h.01l15.98-17.14-9.89-2.28-9.23 9.89-3.97-12.94-9.89-2.29Z"/>
    <path fill="#232F60" d="m1279.75 815.71-10.69 2.12-16.56-18.91 10.67-2.11 16.58 18.9Z"/>
    <path fill="#66AF55" d="m1173.09 646.73-3.94 9.66 14.75 19.02 3.94-9.64-14.75-19.04Z"/>
    <path fill="#E4032C" d="m863.58 1134.11-20.65 11.92v10.59l20.65 11.92v-10.32l-11.92-6.89 11.92-6.9v-10.32Z"/>
    <path fill="#232F60" d="m739.993 1278.59-16.52-3.45-12.161-36.97 16.491 3.45 12.19 36.97Zm639.537-565.97-5.4-14.68 23.09-27.73 5.4 14.66-23.09 27.75Zm-60.49 30.86-3.98 16.21-36.96 10.74 3.98-16.18 36.96-10.77Z"/>
    <path fill="#026D7D" d="m1506.54 981.53-18.61 8.28-38-27.61 18.58-8.27 38.03 27.6Z"/>
    <path fill="#232F60" d="m722.999 923.92 2.77 15.4-27.55 23.3-2.77-15.38 27.55-23.32Z"/>
    <path fill="#66AF55" d="m688.34 1104.25-10.42-11.67-35.33 7.38 10.42 11.65 35.33-7.36Zm131.923 91.62-11.41-10.72-34.541 10.43 11.391 10.7 34.56-10.41Z"/>
    <path fill="#E4032C" d="m1026.91 601.43-24.57 17.85.03.31 1.35 12.79.03.31 27.74 12.36-1.37-13.08-16.02-7.15 14.18-10.31-1.37-13.08Z"/>
    <path fill="#026D7D" d="m650.692 943.08-15.7-15.16 12.18-48.83 15.67 15.13-12.15 48.86Z"/>
    <path fill="#E4032C" d="m1372.87 967.87-16.07-29h-.34l-14.04-.25h-.34L1325 967.03l14.36.25 9.87-16.4 9.29 16.74 14.35.25Zm95.58-160.83-28.72 9.89-.06.31-2.45 12.62-.06.31 22.92 19.93 2.51-12.91-13.23-11.52 16.58-5.72 2.51-12.91Zm-598.333 414.22 37.95-5.33v-.01l.15-.36 6.08-15.05.15-.36v-.01l-23.6-30.2-6.22 15.39 13.62 17.45-21.92 3.09-6.21 15.39Z"/>
    <path fill="#232F60" d="m1263.31 1121.69 9.84-13.65 38.6 3.92-9.83 13.62-38.61-3.89Z"/>
    <path fill="#026D7D" d="m811.22 822.88-23.63.42-28.07-46.72 23.6-.41 28.1 46.71Z"/>
    <path fill="#E4032C" d="m1319.06 1019.92 18.93 44.6.5.07 20.36 2.5.5.06 29.16-38.7-20.82-2.56-16.86 22.34-10.95-25.75-20.82-2.56Z"/>
    <path fill="#026D7D" d="M722 995.07 740.8 971l69.74 9.81-18.77 24.02-69.77-9.76Z"/>
    <path fill="#66AF55" d="m730.337 762.86-12.65-23.02-60.57-1.28 12.63 22.99 60.59 1.31Z"/>
    <path fill="#E4032C" d="m1344.25 820.02-40.26 23.24v20.65l40.26 23.24v-20.13l-23.24-13.43 23.24-13.44v-20.13Z"/>
    <path fill="#232F60" d="m1033.69 1258.3-11.63 22.06-57.451 2.21 11.6-22.02 57.481-2.25Z"/>
    <path fill="#66AF55" d="m789.292 999.41-22.79-7.5-41.26 36.88 22.76 7.49 41.29-36.87Z"/>
    <path fill="#E4032C" d="m890.2 576.38-47.18-1.65v.01l-.26.41-10.59 16.95-.26.41 22.16 41.68 10.83-17.33-12.78-24.08 27.25.93 10.83-17.33Z"/>
    <path fill="#232F60" d="m1111.12 529.17-.87 27.82-56.57 30.34.87-27.78 56.57-30.38Z"/>
    <path fill="#66AF55" d="m1307.82 678.37 19.27-13.39-4.52-53.91-19.24 13.37 4.49 53.93Z"/>
    <path fill="#026D7D" d="m871.43 788.72-29.28-11.83-10.13-72.11 29.23 11.81 10.18 72.13Z"/>
    <path fill="#E4032C" d="m739.281 696.55 45.41 7.19h.01l.29-.37 12.26-15.13.29-.37-16.47-42.93-12.53 15.48 9.5 24.79-26.23-4.14-12.53 15.48Z"/>
    <path fill="#232F60" d="m1238.93 1183 24.35-1.37 30.8 47.06-24.31 1.36-30.84-47.05Z"/>
    <path fill="#026D7D" d="m872.16 1314.74 31.77-12.19 60.98 49.38-31.72 12.17-61.03-49.36Z"/>
    <path fill="#E4032C" d="m1183.19 1276.33-41.27-19.24-.38.27-15.8 11.06-.38.27 3.97 45.36 16.15-11.31-2.28-26.19 23.84 11.09 16.15-11.31Zm301.01-256.8-43.52 14.14-.09.46-4.03 18.95-.1.46 34.01 30.62 4.11-19.38-19.62-17.69 25.12-8.18 4.12-19.38Zm-410.92-392.94-5.1 48.54.4.3 16.72 12.14.41.3 44.59-19.85-17.1-12.42-25.75 11.44 2.92-28.03-17.09-12.42Zm-321.76 464.77 16.98 44.23h.01l.48.08 19.81 3.14.48.07h.01l29.81-36.82-20.26-3.21-17.23 21.25-9.82-25.54-20.27-3.2Z"/>
    <path fill="#66AF55" d="m1000.55 524.12-23.85 3.69-20.13 51.87 23.81-3.68 20.17-51.88Z"/>
    <path fill="#232F60" d="m1348.71 752.57 23.66-5.12 37.49 41.34-23.62 5.1-37.53-41.32Z"/>
    <path fill="#026D7D" d="m1226.44 594-24.48 19.12-66.42-26.83 24.44-19.1 66.46 26.81Zm-247.519 92.75-31.32 1.65-39.39-60.66 31.27-1.64 39.44 60.65Z"/>
    <path fill="#232F60" d="m681.242 871.77 13.63-19.62 54.9 4.6-13.61 19.59-54.92-4.57Z"/>
    <path fill="#E4032C" d="m1434.41 1113.12-47.06-1.64-.26.41-10.57 16.91-.25.41 22.1 41.58 10.81-17.29-12.75-24.02 27.17.93 10.81-17.29Z"/>
    <path fill="#232F60" d="m1335.23 1323.46-23.98.5-28.66-47.31 23.94-.51 28.7 47.32Z"/>
    <path fill="#E4032C" d="m608.508 995.05 38.96 35.08.51-.17 21.12-6.86.51-.16 10.9-51.29-21.59 7.02-6.31 29.61-22.51-20.25-21.59 7.02Z"/>
    <path fill="#026D7D" d="m733.251 1157.41-11.38 29.64-72.32 11.46 11.36-29.6 72.34-11.5Zm136.628 123.48-25.27 19.75-68.57-27.71 25.24-19.71 68.6 27.67Z"/>
    <path fill="#232F60" d="m1233.94 737.39-16.21-17.88 17-52.99 16.19 17.85-16.98 53.02Z"/>
    <path fill="#026D7D" d="m1408.01 947.82-18.47-27.37 33.39-68.45 18.43 27.34-33.35 68.48Z"/>
  </g>
  <g clip-path="url(#b)" opacity=".15">
    <path fill="#66AF55" d="m1435.51 256.798-20.07 5.29-12.55 46.197 20.03-5.29 12.59-46.197Z"/>
    <path fill="#232F60" d="m646.8 333.741 13.105 20.026-24.878 49.239-13.066-19.986 24.839-49.279Z"/>
    <path fill="#E4032C" d="m1626.24 472.848-2.82-40.191-.36-.179-15.33-7.478-.38-.179-33.39 22.532 15.67 7.637 19.29-12.987 1.63 23.188 15.69 7.657Z"/>
    <path fill="#66AF55" d="m523.158 842.663-12.131-16.844-47.629 4.833 12.131 16.804 47.629-4.793Zm911.772-242.817 4.75-20.205-34.88-32.774-4.73 20.165 34.86 32.814Z"/>
    <path fill="#026D7D" d="m1480.61 131.472 15.73 35.299-52.38 72.089-15.69-35.239 52.34-72.149Z"/>
    <path fill="#232F60" d="m191.672 606.905 19.807-6.901 36.651 31.62-19.787 6.901-36.671-31.62Z"/>
    <path fill="#E4032C" d="m521.968 796.227 34.126-23.029-.02-.417-1.213-17.381-.04-.438-36.989-18.037 1.233 17.779 21.358 10.44-19.688 13.304 1.233 17.779Z"/>
    <path fill="#026D7D" d="m531.968 289.095-25.992-7.438-15.054-60.476 25.932 7.438 15.114 60.476Z"/>
    <path fill="#232F60" d="m1776.64 973.399-11.73 21.358-56.2 1.194 11.73-21.319 56.2-1.233Z"/>
    <path fill="#E4032C" d="m1907.9 822.677-13.45 41.404v.02l.3.318 12.33 13.702.3.338 42.6-9.048-12.61-14.02-24.6 5.21 7.75-23.904-12.62-14.02Z"/>
    <path fill="#026D7D" d="m1000.36 344.937 9.69 25.216-39.217 48.424-9.665-25.176 39.192-48.464Z"/>
    <path fill="#232F60" d="m1264 443.615 20.51 5.429 12.82 47.212-20.46-5.41-12.87-47.231ZM777.117 470.7l18.833 8.711 4.355 47.648-18.813-8.69-4.375-47.669Zm725.823 183.238-21.26 4.216-32.93-37.606 21.22-4.196 32.97 37.586Z"/>
    <path fill="#66AF55" d="m1290.84 317.89-7.84 19.211 29.33 37.824 7.84-19.17-29.33-37.865Z"/>
    <path fill="#E4032C" d="m675.316 1287.13-41.066 23.71v21.06l41.066 23.7v-20.52l-23.705-13.7 23.705-13.72v-20.53Z"/>
    <path fill="#232F60" d="m1701.38 448.924-10.74-29.193 45.92-55.147 10.74 29.154-45.92 55.186Zm-120.3 61.371-7.91 32.237-73.51 21.358 7.92-32.177 73.5-21.418Z"/>
    <path fill="#026D7D" d="m1953.95 983.701-37.01 16.469-75.56-54.911 36.94-16.446 75.63 54.888Z"/>
    <path fill="#232F60" d="m395.745 869.132 5.509 30.626-54.788 46.336-5.509-30.586 54.788-46.376Z"/>
    <path fill="#66AF55" d="m326.818 1227.75-20.722-23.21-70.26 14.68 20.722 23.17 70.26-14.64Z"/>
    <path fill="#E4032C" d="m1000.13 227.803-48.864 35.498.059.617 2.685 25.435.06.616 55.17 24.58-2.73-26.012-31.857-14.219 28.197-20.503-2.72-26.012Z"/>
    <path fill="#026D7D" d="m251.945 907.235-31.222-30.148 24.222-97.108 31.162 30.089-24.162 97.167Z"/>
    <path fill="#E4032C" d="m1688.13 956.535-31.96-57.672h-.67l-27.92-.497h-.68l-33.97 56.498 28.56.497 19.63-32.614 18.47 33.29 28.54.498Zm190.08-319.84-57.11 19.668-.12.617-4.88 25.097-.12.616 45.58 39.635 5-25.674-26.31-22.91 32.97-11.375 4.99-25.674Z"/>
    <path fill="#232F60" d="m1470.25 1262.43 19.57-27.14 76.76 7.79-19.55 27.09-76.78-7.74Z"/>
    <path fill="#026D7D" d="m571.19 668.196-46.993.835-55.822-92.911 46.933-.815 55.882 92.891Z"/>
    <path fill="#E4032C" d="m1581.12 1060.05 37.65 88.69.99.14 40.49 4.97.99.12 57.99-76.96-41.4-5.09-33.53 44.42-21.77-51.2-41.41-5.09Z"/>
    <path fill="#66AF55" d="m410.342 548.836-25.157-45.78-120.455-2.545 25.117 45.719 120.495 2.606Z"/>
    <path fill="#E4032C" d="m1631.34 644-68.8 61.756.01.019.19.915 8.09 38.313.2.934 87.88 28.685-8.27-39.169-50.73-16.587 39.7-35.697-8.27-39.169Z"/>
    <path fill="#66AF55" d="m527.578 1019.26-45.322-14.92-82.053 73.35 45.262 14.89 82.113-73.32Z"/>
    <path fill="#E4032C" d="m728.256 177.987-93.826-3.281v.019l-.517.816-21.06 33.708-.517.815 44.069 82.888 21.537-34.463-25.415-47.888 54.192 1.85 21.537-34.464Z"/>
    <path fill="#232F60" d="m1167.59 84.101-1.73 55.325-112.5 60.337 1.73-55.246 112.5-60.416Z"/>
    <path fill="#66AF55" d="m1558.77 380.812 38.32-26.629-8.99-107.209-38.26 26.588 8.93 107.25Z"/>
    <path fill="#026D7D" d="M690.929 600.262 632.7 576.736l-20.145-143.403 58.129 23.486 20.245 143.443Z"/>
    <path fill="#E4032C" d="m428.121 416.966 90.306 14.299h.02l.577-.736 24.381-30.089.577-.735-32.754-85.374-24.918 30.784 18.892 49.3-52.163-8.233-24.918 30.784ZM1909.53 1059.27l-86.54 28.12-.18.92-8.02 37.68-.2.92 67.64 60.89 8.17-38.54-39.02-35.18 49.96-16.27 8.19-38.54Zm-817.19-781.432-10.14 96.53.79.597 33.26 24.143.81.596 88.68-39.475-34.01-24.7-51.21 22.751 5.81-55.743-33.99-24.699ZM452.461 1202.12l33.768 87.96h.02l.954.15 39.396 6.25.954.14h.02l59.283-73.22-40.291-6.39-34.265 42.26-19.529-50.79-40.31-6.36Z"/>
    <path fill="#66AF55" d="m947.704 74.059-47.43 7.338-40.032 103.153 47.351-7.319 40.111-103.172Z"/>
    <path fill="#232F60" d="m1640.09 528.372 47.05-10.182 74.55 82.212-46.97 10.143-74.63-82.173Z"/>
    <path fill="#026D7D" d="m1396.93 213.027-48.69 38.024-132.08-53.356 48.6-37.984 132.17 53.316Zm-492.24 184.45-62.286 3.281-78.334-120.633 62.186-3.261 78.434 120.613Z"/>
    <path fill="#232F60" d="m312.703 765.422 27.106-39.018 109.178 9.148-27.066 38.958-109.218-9.088Z"/>
    <path fill="#E4032C" d="m1810.51 1245.39-93.58-3.26-.52.81-21.02 33.63-.5.82 43.95 82.69 21.5-34.39-25.36-47.76 54.03 1.84 21.5-34.38Zm-1642.448-234.8 77.479 69.76 1.015-.34 42.001-13.64 1.014-.32 21.676-101.998-42.935 13.96-12.549 58.888-44.765-40.274-42.936 13.964Z"/>
    <path fill="#232F60" d="m1411.85 498.184-32.24-35.557 33.81-105.38 32.19 35.497-33.76 105.44Z"/>
    <path fill="#026D7D" d="m1758.01 916.662-36.73-54.43 66.4-136.126 36.65 54.371-66.32 136.185Z"/>
  </g>
  <defs>
    <clipPath id="a">
      <path fill="#fff" d="M0 0h1060v821H0z" transform="translate(524 487)"/>
    </clipPath>
    <clipPath id="b">
      <path fill="#fff" d="M0 0h2108v1308H0z"/>
    </clipPath>
  </defs>
</svg>
