<svg xmlns="http://www.w3.org/2000/svg" width="145" height="151" fill="none" viewBox="0 0 145 151">
  <g filter="url(#a)">
    <path fill="url(#b)" d="M32.774 121.484c0 3.075 1.238 4.303 4.34 4.303h78.753c2.696 0 3.998-1.285 3.998-3.935 0-28.509.007-57.018.021-85.527a3.74 3.74 0 0 0-.282-1.598 3.741 3.741 0 0 0-.935-1.328c-5.35-5.073-10.649-10.193-16.048-15.213a4.556 4.556 0 0 0-2.83-1.122c-21.005-.063-42.01-.08-63.02-.05h-.265c-2.395.121-3.722 1.483-3.736 3.893-.01 2.866 0 88.088.004 100.577Zm69.344-87.614c-.269 0-.753-.605-.757-.934-.057-3.382-.035-6.765-.035-10.5l12.05 11.462c-3.994 0-7.628.032-11.261-.028h.003Z"/>
  </g>
  <path fill="#C9C9C9" d="M48.947 45.885h55.058a7.452 7.452 0 0 1 1.333.042c1.062.195 1.769.82 1.801 1.953.032 1.132-.644 1.794-1.73 2.006a6.796 6.796 0 0 1-1.316.078H48.9c-1.588-.05-2.582-.853-2.557-2.073.024-1.221.997-2.006 2.603-2.006Zm-2.502 29.892c.255-.655 1.062-1.132 1.691-1.582.234-.17.687-.038 1.04-.038h55.193a5.812 5.812 0 0 1 1.061.024c1.104.209 1.73.903 1.702 2.02a1.858 1.858 0 0 1-1.688 1.893c-.394.042-.792.05-1.188.025H48.791c-1.691.004-2.841-1.058-2.346-2.342Zm-.07-13.986a1.826 1.826 0 0 1 1.733-1.705c.481-.046.97-.046 1.454-.046h54.262c.485 0 .973 0 1.454.032 1.132.11 1.769.775 1.843 1.882.075 1.107-.615 1.8-1.677 2.056a5.189 5.189 0 0 1-1.188.05H49.201a4.647 4.647 0 0 1-1.553-.192 1.804 1.804 0 0 1-1.274-2.077Zm2.936 26.425h54.923c.563 0 1.302-.06 1.646.255.555.503 1.118 1.267 1.188 1.967.092.941-.626 1.61-1.638 1.741-.482.048-.966.065-1.45.05H49.321c-2.005 0-2.99-.659-2.993-1.985-.003-1.327 1.037-2.028 2.983-2.028Zm55.21 18.21H49.463c-2.063 0-3.117-.686-3.135-2.03-.017-1.345 1.026-2.042 3.103-2.042h55.058c1.723.029 2.689.786 2.65 2.077-.039 1.291-.976 1.971-2.618 1.995Zm14.627-72.528c-3.994 0-14.239 0-17.872-.042-.269 0-.989-.605-.993-.934-.057-3.382 0-12.186 0-15.922 1.986 0 4.468 3.475 6.95 5.461l11.915 11.437Z"/>
  <circle cx="33.262" cy="84.021" r="33.262" fill="url(#c)" fill-opacity=".5"/>
  <circle cx="33.262" cy="84.021" r="33.262" fill="url(#d)"/>
  <circle cx="33.262" cy="84.021" r="33.262" fill="#56BB0E"/>
  <g fill-rule="evenodd" clip-rule="evenodd" filter="url(#e)">
    <path fill="url(#f)" d="M39.227 64.911a6.209 6.209 0 1 0-12.418 0v19.514a6.209 6.209 0 1 0 12.418 0V64.911Zm0 36.586a6.209 6.209 0 1 0-12.418 0 6.209 6.209 0 0 0 12.418 0Z"/>
    <path fill="url(#g)" fill-opacity=".2" d="M39.227 64.911a6.209 6.209 0 1 0-12.418 0v19.514a6.209 6.209 0 1 0 12.418 0V64.911Zm0 36.586a6.209 6.209 0 1 0-12.418 0 6.209 6.209 0 0 0 12.418 0Z"/>
  </g>
  <defs>
    <radialGradient id="b" cx="0" cy="0" r="1" gradientTransform="matrix(71.48927 19.85812 -15.90379 57.25368 15.39 97.922)" gradientUnits="userSpaceOnUse">
      <stop stop-color="#B0B0B0"/>
      <stop offset="1" stop-color="#fff"/>
    </radialGradient>
    <radialGradient id="c" cx="0" cy="0" r="1" gradientTransform="rotate(-72.3 71.772 52.433) scale(65.6407)" gradientUnits="userSpaceOnUse">
      <stop stop-color="#288D42"/>
      <stop offset="1" stop-color="#A4C29E"/>
    </radialGradient>
    <radialGradient id="d" cx="0" cy="0" r="1" gradientTransform="rotate(9.061 -30.82 160.138) scale(104.192)" gradientUnits="userSpaceOnUse">
      <stop stop-color="#C3DCAA"/>
      <stop offset="1" stop-color="#71B73F"/>
    </radialGradient>
    <radialGradient id="f" cx="0" cy="0" r="1" gradientTransform="matrix(-31.04458 42.13247 -42.13255 -31.04463 48.54 60.033)" gradientUnits="userSpaceOnUse">
      <stop stop-color="#C4C4C4"/>
      <stop offset=".541" stop-color="#F3E4FF"/>
      <stop offset=".958" stop-color="#F3F3F3"/>
    </radialGradient>
    <filter id="a" width="129.125" height="150.787" x="15.766" y="0" color-interpolation-filters="sRGB" filterUnits="userSpaceOnUse">
      <feFlood flood-opacity="0" result="BackgroundImageFix"/>
      <feColorMatrix in="SourceAlpha" result="hardAlpha" values="0 0 0 0 0 0 0 0 0 0 0 0 0 0 0 0 0 0 127 0"/>
      <feOffset dx="4" dy="4"/>
      <feGaussianBlur stdDeviation="10.5"/>
      <feComposite in2="hardAlpha" operator="out"/>
      <feColorMatrix values="0 0 0 0 0 0 0 0 0 0 0 0 0 0 0 0 0 0 0.25 0"/>
      <feBlend in2="BackgroundImageFix" result="effect1_dropShadow_266_100"/>
      <feBlend in="SourceGraphic" in2="effect1_dropShadow_266_100" result="shape"/>
    </filter>
    <filter id="e" width="33.706" height="70.292" x="20.6" y="49.832" color-interpolation-filters="sRGB" filterUnits="userSpaceOnUse">
      <feFlood flood-opacity="0" result="BackgroundImageFix"/>
      <feColorMatrix in="SourceAlpha" result="hardAlpha" values="0 0 0 0 0 0 0 0 0 0 0 0 0 0 0 0 0 0 127 0"/>
      <feOffset dx="4.435" dy="1.774"/>
      <feGaussianBlur stdDeviation="5.322"/>
      <feComposite in2="hardAlpha" operator="out"/>
      <feColorMatrix values="0 0 0 0 0 0 0 0 0 0 0 0 0 0 0 0 0 0 0.25 0"/>
      <feBlend in2="BackgroundImageFix" result="effect1_dropShadow_266_100"/>
      <feBlend in="SourceGraphic" in2="effect1_dropShadow_266_100" result="shape"/>
    </filter>
    <linearGradient id="g" x1="41.222" x2="25.256" y1="107.354" y2="91.233" gradientUnits="userSpaceOnUse">
      <stop stop-color="#F3F3F3"/>
      <stop offset="1" stop-color="#fff"/>
    </linearGradient>
  </defs>
</svg>
