<svg xmlns="http://www.w3.org/2000/svg" width="387" height="396" fill="none" viewBox="0 0 387 396">
  <path fill="#66AF55" d="m212.498 142.426 4.703-19.995L182.684 90 178 109.955l34.498 32.471Z"/>
  <path fill="#E4032C" d="M345.303 273 332 313.972v.02l.295.315 12.201 13.559.296.334 42.152-8.954-12.476-13.874-24.343 5.156 7.674-23.654L345.303 273Z"/>
  <path fill="#fff" d="m53.626 289.194-21.037 4.172L0 256.152 20.998 252l32.628 37.194Z"/>
  <path fill="#66AF55" d="m355.608 90.05-56.519 19.464-.118.61-4.822 24.835-.118.61 45.105 39.221 4.94-25.406-26.036-22.671 32.628-11.256 4.94-25.406Z"/>
  <path fill="#E4032C" d="m111.314 97.277-68.076 61.111.004.02.191.905 8.003 37.913.195.924 86.966 28.386-8.182-38.76-50.206-16.415 39.286-35.323-8.181-38.76Z"/>
  <path fill="#232F60" d="m236.664 367.094-36.348-53.862 65.709-134.705 36.269 53.803-65.63 134.764Z"/>
  <path fill="#fff" d="m276.559 0 34.781 38.353-46.485 10.038L220.902 0h55.657Z"/>
  <path fill="#66AF55" d="M0 87.42V57.853L71.566 37l-7.832 31.9L0 87.42ZM107.223 396H78.664l28.262-47.011h.668l27.629.492h.668L161.668 396h-27.973l-12.699-22.884L107.223 396Z"/>
  <path fill="#fff" d="M378.98 396h-58.988l-.836-.607 36.563-16.275L378.98 396Z"/>
</svg>
