<svg xmlns="http://www.w3.org/2000/svg" width="19" height="19" fill="none" viewBox="0 0 19 19">
  <path fill="#00255D" d="M0 8.999h2C2 4.943 4.95 2 9.012 2V0C3.875 0 0 3.87 0 8.999Z"/>
  <path fill="#00255D" d="M6 9c0-2.103.898-3 3-3V4C5.773 4 4 5.775 4 9h2Zm.281 2.184a.998.998 0 0 0-.703.26l-4.062 3.695a.99.99 0 0 0-.329.678c-.015.26.07.516.239.713l1.863 2.171a.987.987 0 0 0 .648.291l.356.008c1.383 0 6.402-.293 10.406-4.298 4.594-4.594 4.309-10.516 4.293-10.766a1.014 1.014 0 0 0-.289-.649l-2.172-1.86a1.002 1.002 0 0 0-1.39.087l-3.696 4.062a.978.978 0 0 0-.258.704c.008.26.114.506.301.687l2.461 2.394c-.11.572-.469 1.733-1.66 2.926-1.191 1.19-2.351 1.55-2.926 1.66l-2.394-2.46a.996.996 0 0 0-.688-.303Z"/>
</svg>
