<svg xmlns="http://www.w3.org/2000/svg" width="295" height="61" fill="none" viewBox="0 0 295 61">
  <path fill="#6FB74D" d="m8.483 15.83 8.267-8.27L20 10.81 5.157 25.649c-.066-.51-.1-1.019-.1-1.54a11.62 11.62 0 0 1 3.426-8.268m18 1.784L10.112 34.007 8.77 32.666l-.045-.044s-.166-.156-.243-.244a11.419 11.419 0 0 1-1.475-1.807L23.38 14.189l1.64 1.64a11.701 11.701 0 0 1 1.464 1.785M25.03 32.367l-8.258 8.29-3.27-3.27 14.842-14.84c.465 3.49-.632 7.16-3.303 9.83m-19.63 3.691 11.372 11.373 11.527-11.56.699-.71v-.022c5.597-6.207 5.63-15.684.11-21.935L16.763.81 5.103 12.47A16.373 16.373 0 0 0 .27 24.131c0 4.4 1.718 8.546 4.821 11.65.089.088.255.243.31.299"/>
  <path fill="#6FB74D" d="M32.908 34.617a16.408 16.408 0 0 1-3.769 7.226v.022l-.698.71-11.527 11.56L5.542 42.763a16.248 16.248 0 0 1-4.677-8.136H.676a16.295 16.295 0 0 0-.266 2.928 16.363 16.363 0 0 0 5.132 11.949l11.372 11.371 11.527-11.56.698-.71v-.022c3.514-3.901 4.822-9.088 3.957-13.965h-.188Z"/>
  <path fill="#232F60" d="M52.277 9.002h-.832V52.65h.832V9.002Zm28.712 2.061v15.595h-3.846V15.153h-6.75v11.505h-3.846V11.063h14.442Zm19.322 4.445c.432 1.009.654 2.117.654 3.337 0 1.219-.222 2.316-.654 3.325a8.38 8.38 0 0 1-1.74 2.604 7.811 7.811 0 0 1-2.516 1.696 7.6 7.6 0 0 1-2.97.61c-1.153 0-2.14-.2-2.949-.588-.82-.387-1.363-.886-1.618-1.463v8.08h-3.846V11.064h3.724v1.64c.266-.587.81-1.075 1.651-1.474.843-.388 1.83-.587 2.982-.587 1.053 0 2.05.2 3.015.587a7.378 7.378 0 0 1 2.527 1.685 8.192 8.192 0 0 1 1.74 2.604m-3.558 5.01c.222-.51.333-1.075.333-1.673 0-.599-.111-1.164-.333-1.663a3.78 3.78 0 0 0-.92-1.297 4.123 4.123 0 0 0-1.418-.842c-.555-.2-1.164-.3-1.83-.3-.964 0-1.828.2-2.57.588-.754.388-1.242.887-1.486 1.463v4.146c.244.587.732 1.075 1.485 1.463.743.399 1.607.587 2.572.587.665 0 1.274-.1 1.829-.3a4.18 4.18 0 0 0 1.418-.842c.4-.365.698-.798.92-1.319m10.717-9.477v9.355l7.061-9.354h3.835v15.594h-3.78v-9.354l-7.06 9.354h-3.846V11.063h3.79Zm30.103 7.815c0 1.186-.221 2.283-.665 3.28a8.237 8.237 0 0 1-1.795 2.594 8.286 8.286 0 0 1-2.616 1.707c-.987.41-2.039.62-3.148.62a8.14 8.14 0 0 1-3.148-.62 8.466 8.466 0 0 1-2.615-1.707 7.93 7.93 0 0 1-1.796-2.593c-.443-.998-.665-2.095-.665-3.281s.222-2.261.665-3.27a8.199 8.199 0 0 1 1.796-2.616 8.53 8.53 0 0 1 2.615-1.729 8.14 8.14 0 0 1 3.148-.62c1.109 0 2.161.21 3.148.62.986.41 1.862.987 2.616 1.73a8.159 8.159 0 0 1 1.795 2.615 8.049 8.049 0 0 1 .665 3.27Zm-12.258-1.685a4.188 4.188 0 0 0-.333 1.685c0 .61.111 1.164.333 1.662.221.51.532.943.92 1.297.399.366.853.643 1.396.843.532.2 1.109.299 1.707.299.599 0 1.175-.1 1.696-.3a4.312 4.312 0 0 0 1.374-.842c.399-.366.71-.798.942-1.297.233-.51.355-1.064.355-1.662a4.095 4.095 0 0 0-1.297-3.004 4.138 4.138 0 0 0-1.374-.842 4.7 4.7 0 0 0-1.696-.3c-.61 0-1.175.1-1.707.3-.532.2-.997.487-1.396.842a3.86 3.86 0 0 0-.92 1.32Zm30.547-1.685c.432 1.009.654 2.117.654 3.337 0 1.219-.222 2.316-.654 3.325a8.385 8.385 0 0 1-1.74 2.604 7.82 7.82 0 0 1-2.516 1.696c-.954.4-1.94.61-2.971.61-1.152 0-2.139-.2-2.948-.588-.82-.387-1.352-.886-1.618-1.463v8.08h-3.846V11.064h3.724v1.64c.266-.587.809-1.075 1.651-1.474.843-.388 1.829-.587 2.982-.587 1.053 0 2.05.2 3.015.587a7.386 7.386 0 0 1 2.527 1.685 8.198 8.198 0 0 1 1.74 2.604m-3.558 5.01c.222-.51.332-1.075.332-1.673a4.08 4.08 0 0 0-.332-1.663 3.784 3.784 0 0 0-.92-1.297 4.126 4.126 0 0 0-1.419-.842c-.554-.2-1.163-.3-1.829-.3-.964 0-1.828.2-2.571.588-.743.388-1.241.887-1.485 1.463v4.146c.244.587.742 1.075 1.485 1.463.743.399 1.607.587 2.571.587.666 0 1.275-.1 1.829-.3a4.2 4.2 0 0 0 1.419-.842c.388-.365.698-.798.92-1.319m10.721-9.477v9.355l7.049-9.354h3.846v15.594h-3.779v-9.354l-7.061 9.354h-3.846V11.063h3.791Zm26.929 4.09h-4.821v11.505h-3.846V15.153h-4.81v-4.09h13.477v4.09Zm10.209 8.047a7.41 7.41 0 0 0 2.782-.531c.886-.355 1.551-.82 1.995-1.408l1.175 2.97c-.488.81-1.253 1.485-2.317 2.029-1.064.543-2.316.82-3.768.82-1.186 0-2.295-.189-3.314-.576-1.02-.389-1.907-.932-2.649-1.64a7.52 7.52 0 0 1-1.752-2.572c-.421-1.009-.631-2.15-.631-3.425 0-1.109.188-2.162.565-3.148a8.02 8.02 0 0 1 1.607-2.616 7.663 7.663 0 0 1 2.516-1.795c.975-.444 2.084-.665 3.314-.665 1.153 0 2.195.221 3.137.676a7.377 7.377 0 0 1 2.394 1.817 8.406 8.406 0 0 1 1.529 2.616c.366.987.544 2.028.544 3.115 0 .221 0 .454-.012.71a3.556 3.556 0 0 1-.077.653h-11.572c.178 1.03.688 1.785 1.519 2.261.831.477 1.84.71 3.026.71m3.181-6.119c-.122-.831-.521-1.452-1.208-1.895-.688-.432-1.508-.654-2.45-.654-.942 0-1.795.21-2.538.654-.743.432-1.197 1.064-1.363 1.895h7.57-.011Zm19.131-1.929h-4.822v11.505h-3.835V15.153h-4.821v-4.09h13.478v4.09Z"/>
  <path fill="#E4032C" d="M229.989 14.256c-.377 0-.732.055-1.042.177a3.445 3.445 0 0 0-.875.455c-.266.188-.499.41-.71.654-.21.244-.399.51-.554.787l-1.374-2.35a3.82 3.82 0 0 1 .598-1.275 4.443 4.443 0 0 1 1.042-1.042 5.07 5.07 0 0 1 1.43-.709 5.504 5.504 0 0 1 1.74-.266c.809 0 1.53.122 2.161.366a4.411 4.411 0 0 1 1.574 1.03c.421.433.743.943.953 1.53.222.588.322 1.208.322 1.873 0 .566-.067 1.087-.2 1.552a6.215 6.215 0 0 1-.576 1.386c-.255.454-.576.908-.942 1.374-.377.465-.82.975-1.308 1.53l-1.574 1.762h4.899v3.569h-10.031v-2.771l4.467-4.855c.321-.355.599-.654.831-.92.233-.266.422-.51.577-.754.155-.243.266-.465.354-.698.078-.222.122-.476.122-.754 0-.465-.166-.853-.51-1.174-.343-.322-.809-.477-1.385-.477m12.236-2.97a8.423 8.423 0 0 1 3.159-.599c1.108 0 2.161.2 3.158.599a8.14 8.14 0 0 1 2.627 1.684c.754.72 1.341 1.585 1.785 2.594.443 1.009.654 2.106.654 3.303s-.222 2.316-.654 3.314a7.855 7.855 0 0 1-1.785 2.582 8.133 8.133 0 0 1-2.627 1.685 8.42 8.42 0 0 1-3.158.599 8.42 8.42 0 0 1-3.159-.599 8.144 8.144 0 0 1-2.627-1.685c-.754-.72-1.341-1.585-1.785-2.582-.443-.998-.654-2.106-.654-3.314 0-1.208.222-2.294.654-3.303.444-1.009 1.031-1.873 1.785-2.594a8.146 8.146 0 0 1 2.627-1.684Zm3.159 12.17c.665 0 1.296-.111 1.895-.344a4.685 4.685 0 0 0 1.53-.942 4.478 4.478 0 0 0 1.019-1.441 4.668 4.668 0 0 0 .377-1.873c0-.687-.122-1.286-.377-1.862a4.252 4.252 0 0 0-1.019-1.452 4.88 4.88 0 0 0-1.53-.942 5.33 5.33 0 0 0-1.895-.344c-.676 0-1.319.11-1.907.344a4.62 4.62 0 0 0-1.518.942 4.24 4.24 0 0 0-1.02 1.452 4.654 4.654 0 0 0-.377 1.862c0 .676.122 1.308.377 1.873a4.196 4.196 0 0 0 1.02 1.44c.432.4.931.71 1.518.943a5.347 5.347 0 0 0 1.907.344Zm13.691.01c.698 0 1.264-.166 1.685-.498.432-.333.643-.788.643-1.353 0-.51-.189-.909-.577-1.208-.388-.3-.909-.443-1.563-.443-.454 0-.842.055-1.163.155-.333.1-.577.21-.732.321l-.543-2.438 2.682-3.358h-4.311v-3.58h8.745v2.549l-2.66 3.27c.377.088.776.232 1.186.443.41.21.798.499 1.141.875.344.377.632.843.865 1.408.222.565.332 1.252.332 2.05 0 .743-.133 1.442-.399 2.095a5.007 5.007 0 0 1-1.152 1.707 5.433 5.433 0 0 1-1.807 1.153c-.709.288-1.496.421-2.361.421a6.603 6.603 0 0 1-1.762-.221c-.521-.145-.987-.333-1.375-.577a4.865 4.865 0 0 1-.986-.798 2.644 2.644 0 0 1-.565-.898l.787-2.881c.421.51.942.93 1.551 1.274.61.344 1.397.51 2.35.51m12.342-12.158a8.423 8.423 0 0 1 3.159-.599c1.108 0 2.161.2 3.159.599a8.146 8.146 0 0 1 2.626 1.684c.754.72 1.342 1.585 1.785 2.594.443 1.009.654 2.106.654 3.303s-.222 2.316-.654 3.314a7.855 7.855 0 0 1-1.785 2.582 8.14 8.14 0 0 1-2.626 1.685c-.998.4-2.051.599-3.159.599a8.42 8.42 0 0 1-3.159-.599 8.144 8.144 0 0 1-2.627-1.685c-.754-.72-1.341-1.585-1.784-2.582-.444-.998-.654-2.106-.654-3.314 0-1.208.221-2.294.654-3.303a7.784 7.784 0 0 1 1.784-2.594 8.146 8.146 0 0 1 2.627-1.684Zm3.159 12.17a5.17 5.17 0 0 0 1.895-.344 4.674 4.674 0 0 0 1.53-.942 4.316 4.316 0 0 0 1.019-1.441 4.668 4.668 0 0 0 .377-1.873c0-.687-.122-1.286-.377-1.862a4.252 4.252 0 0 0-1.019-1.452 4.869 4.869 0 0 0-1.53-.942 5.325 5.325 0 0 0-1.895-.344c-.676 0-1.319.11-1.907.344a4.62 4.62 0 0 0-1.518.942 4.41 4.41 0 0 0-1.02 1.452 4.473 4.473 0 0 0-.377 1.862c0 .676.122 1.308.377 1.873a4.21 4.21 0 0 0 1.02 1.44c.432.4.931.71 1.518.943a5.35 5.35 0 0 0 1.907.344Zm16.519-15.041h-3.126l-3.602 6.229h3.115l3.613-6.23Z"/>
  <path fill="#E4032C" d="M287.969 8.415h3.125l3.603 6.229h-3.126l-3.602-6.23ZM77.666 42.33v4.634l3.492-4.633h1.906v7.714H81.19v-4.633l-3.492 4.633h-1.906V42.33h1.873Zm7.36 5.698c.155-.266.31-.576.465-.909.156-.343.289-.72.41-1.13.122-.41.211-.865.289-1.341.066-.477.11-.998.11-1.54v-.766h5.576v5.697h1.075v4.08h-1.84v-2.051H86.09v2.05h-1.84V48.04h.798l-.022-.01Zm4.932 0V44.36h-1.962c-.088.865-.221 1.597-.41 2.184A8.961 8.961 0 0 1 87 48.039h2.96v-.01Zm7.99.311c.476 0 .942-.09 1.374-.267.443-.177.765-.41.986-.698l.588 1.474c-.244.4-.621.732-1.153 1.009-.52.266-1.153.41-1.862.41-.588 0-1.142-.1-1.64-.288a3.67 3.67 0 0 1-1.308-.81 3.658 3.658 0 0 1-.865-1.274c-.21-.499-.31-1.064-.31-1.696 0-.554.089-1.064.277-1.563a3.8 3.8 0 0 1 .798-1.296 3.76 3.76 0 0 1 1.241-.898 3.908 3.908 0 0 1 1.64-.333c.566 0 1.087.111 1.552.333.466.222.865.52 1.186.898.322.377.577.809.754 1.296a4.52 4.52 0 0 1 .266 1.541v.355c0 .122-.022.233-.033.321h-5.73c.088.51.343.887.753 1.12.41.233.91.354 1.497.354m1.573-3.026a1.261 1.261 0 0 0-.598-.93c-.344-.211-.743-.322-1.22-.322-.476 0-.886.11-1.263.322-.366.21-.598.52-.676.93h3.757Zm11.11-.775c.211.498.322 1.053.322 1.651 0 .599-.111 1.153-.322 1.652-.21.498-.499.93-.864 1.285a3.971 3.971 0 0 1-1.242.843c-.465.2-.953.299-1.474.299-.565 0-1.053-.1-1.463-.288-.399-.2-.676-.444-.798-.732v4.002h-1.906V42.32h1.839v.81c.133-.29.399-.533.821-.732.41-.2.909-.289 1.474-.289.521 0 1.019.1 1.496.289.477.2.898.476 1.253.83a4.2 4.2 0 0 1 .864 1.287m-1.762 2.482a2.06 2.06 0 0 0 .166-.831 1.97 1.97 0 0 0-.621-1.463 2.145 2.145 0 0 0-.709-.421 2.648 2.648 0 0 0-.909-.144c-.476 0-.909.1-1.275.288-.365.2-.609.443-.731.731v2.05c.122.29.366.533.731.732.366.2.799.289 1.275.289.333 0 .632-.045.909-.145.277-.1.51-.243.709-.42.2-.178.344-.4.455-.655m3.414-3.524a2.66 2.66 0 0 1 .532-.588c.21-.166.454-.31.709-.432.255-.11.543-.2.831-.266.299-.066.599-.089.887-.089.51 0 .975.067 1.385.211.41.144.776.344 1.076.599.299.254.532.576.698.964.166.388.244.82.244 1.308v4.843h-1.84v-.676c-.189.288-.488.51-.887.665a3.353 3.353 0 0 1-1.23.222c-.421 0-.787-.055-1.12-.177a2.748 2.748 0 0 1-.886-.5 2.028 2.028 0 0 1-.588-.797 2.483 2.483 0 0 1-.21-1.053c0-.41.077-.776.243-1.086.167-.31.388-.577.665-.798.278-.211.599-.377.965-.488a3.87 3.87 0 0 1 1.13-.166c.499 0 .909.055 1.219.166.311.11.532.233.643.366V45.5c0-.454-.144-.81-.443-1.075-.299-.266-.732-.41-1.297-.41-.488 0-.931.1-1.33.288a2.631 2.631 0 0 0-.942.72l-.466-1.562.012.022Zm4.466 3.79c-.077-.144-.255-.266-.521-.365-.266-.111-.576-.155-.931-.155-.498 0-.875.077-1.13.243-.244.156-.377.366-.377.632s.122.466.388.62c.255.156.621.233 1.097.233.355 0 .665-.055.931-.188.266-.122.455-.277.543-.454v-.565Zm10.637-4.944h1.851l1.208 7.715h-1.884l-.676-4.079-1.796 4.079h-1.529l-1.807-4.079-.687 4.079h-1.929l1.197-7.714h1.707l2.173 4.932 2.172-4.932Zm6.484 0v4.634l3.491-4.633h1.907v7.714h-1.873v-4.633l-3.503 4.633h-1.895V42.33h1.873Zm17.515 6.552c-.233.377-.609.71-1.13.975-.521.266-1.12.41-1.818.41a4.02 4.02 0 0 1-1.541-.299 3.86 3.86 0 0 1-1.285-.842 3.86 3.86 0 0 1-.887-1.286 4.029 4.029 0 0 1-.333-1.652 4.029 4.029 0 0 1 1.22-2.937 4.263 4.263 0 0 1 1.285-.831c.488-.2.998-.288 1.541-.288.687 0 1.286.133 1.796.41.498.266.864.587 1.086.964l-.543 1.585c-.2-.244-.488-.454-.854-.643a2.769 2.769 0 0 0-1.274-.288c-.699 0-1.264.189-1.685.565-.421.377-.632.865-.632 1.475 0 .61.211 1.108.632 1.485.421.377.975.565 1.685.565.487 0 .919-.1 1.285-.3.366-.199.665-.42.876-.664l.565 1.607.011-.011Zm7.401-4.534h-2.383v5.697h-1.906v-5.697h-2.383V42.33h6.672v2.017Zm1.141-.864c.144-.222.322-.41.532-.588.211-.166.455-.31.709-.432.255-.11.544-.2.832-.266.299-.066.598-.089.886-.089.51 0 .976.067 1.386.211.41.144.776.344 1.075.599.299.254.532.576.698.964.167.388.244.82.244 1.308v4.843h-1.84v-.676c-.188.288-.487.51-.886.665-.399.155-.81.222-1.231.222-.421 0-.787-.055-1.119-.177a2.753 2.753 0 0 1-.887-.5 2.026 2.026 0 0 1-.587-.797 2.484 2.484 0 0 1-.211-1.053c0-.41.078-.776.244-1.086.166-.31.388-.577.665-.798a3.03 3.03 0 0 1 .964-.488 3.875 3.875 0 0 1 1.131-.166c.499 0 .909.055 1.219.166.31.11.532.233.643.366V45.5c0-.454-.144-.81-.444-1.075-.299-.266-.731-.41-1.296-.41-.488 0-.931.1-1.33.288a2.62 2.62 0 0 0-.942.72l-.466-1.562.011.022Zm4.467 3.79c-.078-.144-.255-.266-.521-.365-.266-.111-.576-.155-.931-.155-.499 0-.876.077-1.12.243-.255.156-.376.366-.376.632s.121.466.387.62c.255.156.621.233 1.098.233.354 0 .665-.055.931-.188.266-.122.454-.277.543-.454v-.555l-.011-.01Zm5.689-4.944v2.738h3.392v-2.737h1.906v7.714h-1.906v-2.948h-3.392v2.948h-1.906V42.33h1.906Zm14.872 3.869a3.97 3.97 0 0 1-1.231 2.915 4.227 4.227 0 0 1-1.296.842c-.488.2-1.009.31-1.563.31s-1.064-.1-1.563-.31a4.22 4.22 0 0 1-1.297-.842 3.764 3.764 0 0 1-.887-1.286 3.977 3.977 0 0 1-.332-1.63c0-.587.111-1.118.332-1.617.222-.5.521-.931.887-1.297a4.097 4.097 0 0 1 2.86-1.164c.554 0 1.064.1 1.563.31.487.211.919.488 1.296.854s.676.798.898 1.297c.222.498.333 1.042.333 1.618Zm-6.074-.831a2.06 2.06 0 0 0-.167.83 1.97 1.97 0 0 0 .621 1.464c.189.177.421.321.687.421.266.1.543.144.843.144.299 0 .576-.044.842-.144.255-.1.488-.244.687-.421a1.912 1.912 0 0 0 .632-1.463c0-.3-.055-.576-.166-.831a1.955 1.955 0 0 0-.466-.654 2.16 2.16 0 0 0-.687-.422 2.32 2.32 0 0 0-.842-.144c-.3 0-.577.045-.843.144-.266.1-.498.244-.687.422a1.834 1.834 0 0 0-.454.654Zm10.465-3.038c.388 0 .754.045 1.097.134.344.088.632.233.887.41.244.188.444.41.588.687.144.277.221.599.221.964 0 .322-.044.577-.144.787-.1.2-.233.4-.432.577.288.188.532.42.709.709.189.288.277.643.277 1.086 0 .377-.077.72-.232 1.009a2.336 2.336 0 0 1-.621.731 2.69 2.69 0 0 1-.909.455c-.344.11-.709.155-1.086.155h-3.325v-7.725h2.97v.022Zm-1.141 1.774v1.308h1.352c.233 0 .41-.066.543-.2a.603.603 0 0 0 .188-.454.672.672 0 0 0-.188-.465c-.133-.133-.31-.2-.554-.2h-1.33l-.011.011Zm0 2.849v1.33h1.751c.221 0 .399-.067.521-.189a.635.635 0 0 0 .199-.487.632.632 0 0 0-.199-.455c-.133-.133-.311-.2-.543-.2h-1.741.012Zm11.356-4.623v7.726h-1.906v-2.294h-.632l-1.563 2.294h-2.205l1.751-2.583a2.634 2.634 0 0 1-1.053-.942c-.255-.399-.377-.886-.377-1.452 0-.432.078-.82.222-1.152.155-.344.354-.632.609-.865.255-.233.566-.41.931-.543a3.594 3.594 0 0 1 1.153-.188h3.07Zm-3.192 1.918c-.277 0-.499.078-.665.244a.812.812 0 0 0-.244.598.74.74 0 0 0 .255.577.963.963 0 0 0 .643.221h1.286v-1.64h-1.286.011Zm11.109.1h-2.383v5.697h-1.907v-5.697h-2.383V42.33h6.673v2.017Zm7.661 4.534c-.233.377-.609.71-1.13.975-.521.266-1.12.41-1.818.41a4.02 4.02 0 0 1-1.541-.299c-.488-.2-.92-.477-1.286-.842a3.871 3.871 0 0 1-.886-1.286 4.029 4.029 0 0 1-.333-1.652 4.029 4.029 0 0 1 1.219-2.937 4.28 4.28 0 0 1 1.286-.831c.488-.2.998-.288 1.541-.288.687 0 1.286.133 1.795.41.499.266.865.587 1.087.964l-.543 1.585c-.2-.244-.488-.454-.854-.643a2.77 2.77 0 0 0-1.275-.288c-.698 0-1.263.189-1.684.565-.422.377-.632.865-.632 1.475 0 .61.21 1.108.632 1.485.421.377.975.565 1.684.565.488 0 .92-.1 1.286-.3.366-.199.665-.42.876-.664l.565 1.607.011-.011Zm7.039-6.552v7.726h-1.906v-2.294h-.632l-1.563 2.294h-2.205l1.751-2.583a2.64 2.64 0 0 1-1.053-.942c-.255-.399-.377-.886-.377-1.452 0-.432.078-.82.222-1.152a2.59 2.59 0 0 1 .61-.865c.254-.233.565-.41.931-.543a3.584 3.584 0 0 1 1.152-.188h3.07Zm-3.192 1.918c-.277 0-.498.078-.665.244a.858.858 0 0 0-.244.598c0 .233.078.433.255.577a.965.965 0 0 0 .643.221h1.286v-1.64h-1.286.011ZM71.591 42.33l3.192 7.726-2.294-.011-1.807-4.522-1.817 4.522H66.57l3.192-7.714h1.83Z"/>
</svg>
