<svg xmlns="http://www.w3.org/2000/svg" width="24" height="25" fill="none" viewBox="0 0 24 25">
  <path fill="#fff" fill-rule="evenodd" d="m12 0 .584.739-.584.777-.585-.777L12 0ZM5.01 6.377c.196-.918-.611-.438-.83-.266.267-.759.001-1.048-.221-1.29-.14-.152-.261-.285-.225-.503.041-.242.375-.292.697-.34.205-.03.406-.059.525-.137.145-.094.297-.262.45-.431.422-.465.851-.938 1.162.076-.79.762-.33 1.883.674 1.883 0 0 .006.164-.003.177-1.198-.06-1.616-.973-1.397-1.705.039-.129-1.228-.132-1.228.69 0 .273.186.475.373.679.192.207.385.417.385.705 0 .267-.277.462-.361.462Zm13.147-2.536c-.039-.129 1.229-.132 1.229.69 0 .273-.186.475-.374.679-.191.207-.384.417-.384.705 0 .267.276.462.36.462-.194-.918.613-.437.83-.266-.265-.759 0-1.048.223-1.29.139-.152.26-.285.224-.503-.041-.242-.374-.291-.697-.34-.205-.03-.405-.059-.524-.137-.146-.094-.298-.262-.451-.431-.422-.465-.851-.938-1.162.076.791.762.33 1.883-.674 1.883 0 0-.005.164.004.177 1.198-.06 1.615-.974 1.396-1.705Zm-3.105 2.323c1.25-.005 2.43-.009 2.58.819.052.29-.082.731-.228.858-.026-.092-.16-.392-.589-.46-2.161-.338-3.965 3.116-2.336 4.512.024.021.01.06-.023.06H9.573a.034.034 0 0 1-.023-.06c1.629-1.396-.175-4.85-2.337-4.512-.427.068-.563.368-.589.46-.145-.127-.28-.568-.227-.858.149-.827 1.329-.823 2.58-.82.819.004 1.668.007 2.28-.223.03.399-.476 1.038-.96 1.274.826.744 1.568 2.241 1.717 4.071.15-1.83.891-3.327 1.717-4.07-.483-.237-.988-.876-.959-1.275.612.23 1.461.227 2.28.224Zm.157 1.997c.31-.1.85-.107 1.225.234 0-.365-.305-.689-.41-.73-.14.026-.612.238-.815.496Zm-7.627.234c.376-.341.915-.333 1.224-.234-.201-.258-.675-.47-.814-.496-.105.041-.41.365-.41.73Zm8.338-5.422-.415-.525-.416.525.415.513.416-.513Zm2.844 14.599.527.578-.527.507-.527-.507.527-.578ZM8.91 2.972l-.415-.524-.415.525.415.513.415-.513Zm.36 2.574H7.72c-.004-.006-.272-.383-.34-.57-.244-.68.068-.997.525-.997l.59.555.59-.555c.457 0 .769.317.524.997a1.982 1.982 0 0 1-.176.327c.55-.079 1.252-.469 1.406-1.305 0 0-.407-.67-.508-.94-.367-.975.1-1.373.785-1.373L12 2.762l.883-1.077c.685 0 1.153.398.787 1.372-.103.271-.509.94-.509.94.154.837.856 1.227 1.406 1.306a2.016 2.016 0 0 1-.177-.327c-.245-.68.068-.997.525-.997l.59.555.59-.555c.456 0 .769.317.524.997-.068.189-.34.57-.34.57h-1.55c-1.303 0-1.889-.83-2.066-1.548h-1.326c-.177.719-.764 1.548-2.067 1.548Zm14.475 4.982c-.299.157-2.054 1.01-4.303.694.024-.11.043-.223.06-.335 1.496-.186 2.713-.449 3.488-.896.883-.51 1.27-1.728.824-2.633-.012-.023-.044-.027-.06-.008-.244.292-1.781 2.025-4.202 2.564a4.774 4.774 0 0 0-.035-.389c1.176-.691 2.324-1.488 2.871-2.216.826-1.102.75-2.507-.036-3.223a.037.037 0 0 0-.055.008c-.25.425-2.578 4.328-5.135 6.013l-.094.06a.128.128 0 0 0-.02.205c.296.277.479.662.479 1.09 0 .744-.553 1.363-1.285 1.498-.371.074-.907.052-1.423-.124a.035.035 0 0 0-.047.032v2.357c0 .038.056.047.069.01.313-.86 1.25-1.042 1.66-1.042.148.92.412 1.68.754 2.09.558.667 1.468.658 1.863.197a.034.034 0 0 0 .008-.028.033.033 0 0 0-.017-.023c-.232-.138-1.559-.983-1.825-2.368a2.56 2.56 0 0 0 .306-.13c.428.735 1.052 1.39 1.554 1.64.843.42 1.615.215 1.957-.399.013-.022-.002-.048-.028-.05-.521-.044-2.122-.52-2.804-1.679.08-.074.155-.152.226-.234.713.563 1.722 1.06 2.444 1.162.844.12 1.802-.16 1.825-1.179a.036.036 0 0 0-.038-.036c-.3.02-2.289.11-3.706-.734.05-.097.095-.196.138-.296 0 0 2.14.524 3.155.35 1.008-.172 1.598-.951 1.484-1.92a.036.036 0 0 0-.052-.028ZM4.842 12.125c.042.1.088.2.138.296-1.417.843-3.404.754-3.706.735a.036.036 0 0 0-.038.037c.023 1.018.98 1.297 1.825 1.178.722-.101 1.73-.6 2.444-1.162.071.082.146.16.225.234-.682 1.159-2.282 1.635-2.804 1.678-.025.003-.04.03-.028.051.342.614 1.114.818 1.958.399.502-.25 1.125-.905 1.554-1.64.099.05.2.093.305.13-.266 1.384-1.593 2.23-1.825 2.368a.034.034 0 0 0-.009.052c.395.46 1.306.469 1.863-.197.343-.41.606-1.172.754-2.091.41 0 1.347.182 1.66 1.043.014.036.07.027.07-.011v-2.357c0-.024-.025-.04-.048-.032-.515.176-1.052.198-1.423.123-.731-.134-1.285-.753-1.285-1.497 0-.428.184-.814.478-1.09a.128.128 0 0 0-.018-.204 4.155 4.155 0 0 1-.095-.06C4.282 8.422 1.954 4.522 1.703 4.094a.037.037 0 0 0-.057-.009c-.785.717-.861 2.121-.035 3.223.547.728 1.695 1.525 2.87 2.217a4.805 4.805 0 0 0-.033.388C2.028 9.376.493 7.645.246 7.352a.037.037 0 0 0-.06.006c-.445.907-.059 2.123.824 2.633.775.447 1.991.71 3.488.896.016.112.036.224.059.336-2.246.314-4-.536-4.302-.694a.036.036 0 0 0-.052.027c-.114.97.476 1.748 1.484 1.92 1.01.173 3.137-.346 3.155-.35Zm13.142 6.64.78.636.78-.636c.448.275.729.78.663 1.343-.075.643-.62 1.163-1.286 1.23a1.464 1.464 0 0 1-1.39-.658c-.44-.454-1.554-.793-2.458-.793-.14 0-.206-.123-.158-.244.362-.902-.416-1.556-1.221-1.024-.351.232-.708.69-.977 1.452 1.321.332 2.98 1.246 3.315 2.243.13.386-.297.91-.816 1.016a.035.035 0 0 1-.042-.028c-.27-1.489-1.814-2.599-2.618-2.787l-.039.107-.028.08c.875.43 1.723 1.335 1.966 2.411.11.493-.419.937-.857 1.059a.035.035 0 0 1-.03-.005.037.037 0 0 1-.015-.027c-.083-1.361-.663-2.517-1.181-3.043a4.592 4.592 0 0 0-.033.31s.532 1.536.532 2.657c0 .521-.747.885-.885.936-.11-.05-.858-.415-.858-.936 0-1.12.532-2.657.532-2.657a4.527 4.527 0 0 0-.032-.31c-.52.526-1.099 1.682-1.182 3.043a.035.035 0 0 1-.045.032c-.437-.122-.967-.566-.856-1.059.242-1.076 1.09-1.981 1.966-2.41l-.042-.117-.025-.071c-.804.188-2.348 1.298-2.62 2.787a.036.036 0 0 1-.014.023.034.034 0 0 1-.027.005c-.518-.105-.945-.63-.816-1.015.335-.998 1.994-1.912 3.315-2.243-.268-.763-.625-1.22-.976-1.453-.806-.532-1.584.122-1.222 1.025.048.12-.018.244-.158.244-.8 0-1.762.264-2.279.64l.637.614c.045.044.078.1.082.167a.27.27 0 0 1-.255.287.281.281 0 0 1-.215-.08l-.625-.6a.913.913 0 0 1-.666.111.87.87 0 0 1-.68-.697.827.827 0 0 1 .125-.59s-2.36-2.313-2.38-2.34l-.112.056c-.253.157-.552-.039-.54-.176-.179.17-1.005.232-1.252-.633.168.015.508.007.508.007S.867 16 1.16 15.64c.334-.322.998.05.998.05s-.012-.345-.038-.515c.861.195.854 1.04.699 1.233.133-.02.345.271.207.54l-.02.047c.044.023 2.468 2.403 2.468 2.403a.911.911 0 0 1 .986.224c.617.078 1.931-.232 1.808-.425-1.402-2.045-.33-3.262.96-3.194v1.373c0 .44.37.798.828.798h.89c.638 0 1.054.666 1.054.666s.415-.666 1.054-.666h.89c.457 0 .828-.357.828-.798v-1.373c1.289-.068 2.361 1.15.96 3.194-.125.195 1.154.49 1.623.422.089-.358.318-.663.63-.855Zm-4.27-3.07c.014-.415-.421-.502-.7-.395-.082.032-.134.07-.115.177.052.278.1.556.15.846l.061.352c.23-.26.701-.37.701-.038 0 .39-.329.753-.777.982l-1.565-4.453a1.33 1.33 0 0 1 .415-.02.305.305 0 0 1-.04-.148c0-.206.144-.298.272-.298a.2.2 0 0 1 .214.195c0 .116-.109.228-.145.257-.076.059-.062.105-.007.172.057.07.176.227.2.323.165-.254.761-.387 1-.209.284.213.228.655-.015.94-.036.042-.097.107-.145.104-.078-.002-.112-.062-.104-.162 0-.013.002-.03.004-.047.011-.125.03-.328-.05-.328-.168 0-.153.282-.114.432a17.923 17.923 0 0 1 .145.587c.425-.073.831.107.748.73-.01.096-.137.096-.133.002Zm-2.912-3.42.329.947c-.282.07-.735.282-.735.564 0 .376.64.62 1.01.59a.261.261 0 0 0 .061.232c-.134 0-.388.065-.47.158-.197-.19-.505-.258-.65-.143-.147.116-.152.313.002.536.106.154.146.306.026.485.275 0 .318-.228.352-.403.02-.11.038-.199.105-.199a.785.785 0 0 0 .042.402c.034.1.034.17-.024.266-.144.238-.368.787-.338 1.282-.146 0-.22-.037-.169-.245.02-.077-.027-.132-.087-.037a.82.82 0 0 0-.1.36c0 .442.507.531.7.438.56.562 1.661.412 2.03.223l-1.938-5.51c-.04-.104-.181-.055-.146.054Zm-.067 4.539c.167-.123.5-.178.782-.178-.162-.151-.213-.59-.13-.846-.388.391-.692.797-.652 1.024Z" clip-rule="evenodd"/>
</svg>
